     <svg xmlns="http://www.w3.org/2000/svg" width="1432" height="518" viewBox="0 0 1432 518" fill="none" data-arp-injected="true">
<path d="M1431.7 518.996H1427.82L1420.75 506.743L1413.68 518.996H1409.79L1418.86 503.357L1406.71 482.338L1385.59 518.996H1381.71L1403.82 480.644H1379.52L1366.37 503.357L1375.44 518.996H1371.55L1363.49 505.05H1337.3L1329.23 518.996H1325.35L1333.41 505.05H1309.11L1301.05 518.996H1297.16L1305.23 505.05H1282.92L1290.99 518.996H1287.11L1279.04 505.05H1254.74L1262.81 518.996H1258.92L1251.85 506.743L1244.78 518.996H1240.9L1264 478.951L1251.85 457.932L1225.66 503.357L1234.73 518.996H1230.84L1209.73 482.338L1197.58 503.357L1206.64 518.996H1202.76L1195.69 506.743L1188.62 518.996H1184.73L1192.8 505.05H1168.5L1160.44 518.996H1156.55L1164.62 505.05H1140.32L1132.25 518.996H1128.37L1136.44 505.05H1112.14L1104.07 518.996H1100.19L1108.25 505.05H1085.45L1093.52 518.996H1089.63L1082.56 506.743L1075.49 518.996H1071.61L1080.67 503.357L1068.52 482.338L1047.41 518.996H1043.53L1065.63 480.644H1041.33L1028.19 503.357L1037.25 518.996H1033.37L1025.3 505.05H999.111L991.045 518.996H987.161L995.228 505.05H970.929L962.863 518.996H958.979L967.045 505.05H944.739L952.805 518.996H948.921L940.855 505.05H916.557L924.623 518.996H920.739L913.669 506.743L906.598 518.996H902.715L925.818 478.951L913.669 457.932L887.478 503.357L896.54 518.996H892.657L871.545 482.338L859.396 503.357L868.458 518.996H864.574L857.504 506.743L850.433 518.996H846.55L854.616 505.05H830.318L822.251 518.996H818.367L826.434 505.05H802.135L794.069 518.996H790.185L798.252 505.05H773.953L765.887 518.996H762.003L770.07 505.05H747.763L755.829 518.996H751.945L744.875 506.743L737.805 518.996H733.921L742.983 503.357L730.834 482.338L708.925 518.996H705.042L727.149 480.644H702.851L689.706 503.357L698.768 518.996H694.884L686.818 505.05H660.628L652.561 518.996H648.678L656.744 505.05H632.445L624.379 518.996H620.495L628.562 505.05H606.255L614.321 518.996H610.438L602.371 505.05H578.073L586.139 518.996H582.255L575.185 506.743L568.115 518.996H564.231L587.334 478.951L575.185 457.932L548.995 503.357L558.057 518.996H554.173L532.763 482.338L520.613 503.357L529.675 518.996H525.792L518.721 506.743L511.651 518.996H507.767L515.833 505.05H491.535L483.469 518.996H479.585L487.651 505.05H463.353L455.287 518.996H451.403L459.469 505.05H435.171L427.105 518.996H423.221L431.287 505.05H408.98L417.047 518.996H413.163L406.092 506.743L399.022 518.996H395.138L404.2 503.357L392.051 482.338L370.641 518.996H366.757L388.865 480.644H364.566L351.521 503.357L360.483 518.996H356.6L348.533 505.05H322.343L314.277 518.996H310.393L318.459 505.05H294.161L286.095 518.996H282.211L290.277 505.05H267.871L275.937 518.996H272.053L263.987 505.05H239.689L247.755 518.996H243.871L236.801 506.743L229.73 518.996H225.847L248.95 478.951L236.801 457.932L210.61 503.357L219.673 518.996H215.789L194.677 482.338L182.528 503.357L191.59 518.996H187.706L180.636 506.743L173.267 518.996H169.383L177.449 505.05H153.151L145.085 518.996H141.201L149.267 505.05H124.969L116.903 518.996H113.019L121.085 505.05H96.7867L88.7204 518.996H84.8367L92.9029 505.05H70.5963L78.6625 518.996H74.6792L67.6087 506.743L60.5383 518.996H56.6546L65.7167 503.357L53.5675 482.338L32.3563 518.996H28.4725L50.58 480.644H26.2817L13.1367 503.357L22.1987 518.996H18.315L10.2488 505.05H-2V501.663H8.25708L-2 483.832V474.07L8.35667 456.238H-2V452.852H10.2488L36.5387 407.427H12.2404L-2 432.032V425.258L8.25708 407.427H-2V404.04H8.25708L-2 386.209V376.447L8.35667 358.615H-2V355.228H10.2488L22.3979 334.21H-1.90042L-2 334.309V327.535L8.25708 309.704H-2V306.317H10.2488L22.3979 285.298H-1.90042L-2 285.498V278.724L9.25292 259.199L-2 239.675V229.912L8.25708 212.081H-2V208.694H8.25708L-2 190.763V183.99L-1.90042 184.189H22.3979L10.2488 163.17H-2V159.783H8.25708L-2 141.952V132.19L8.25708 114.358H-2V110.972H8.25708L-2 93.1404V86.3665L12.2404 110.972H36.5387L10.2488 65.5469H-2V62.16H8.25708L-2 44.2292V34.4669L8.25708 16.6358H-2V13.2488H8.25708L0.190833 -0.697327H4.07458L11.145 11.5554L18.2154 -0.697327H22.0992L13.2362 14.9423L26.3813 37.6546H50.6796L28.4725 -0.597711H32.3563L53.4679 36.0608L65.6171 14.9423L56.6546 -0.597711H60.5383L67.6087 11.655L74.6792 -0.597711H78.5629L70.4967 13.3484H94.795L102.861 -0.597711H106.745L98.6787 13.3484H120.985L112.919 -0.597711H116.803L124.869 13.3484H149.168L141.101 -0.597711H144.985L153.051 13.3484H179.242L187.308 -0.597711H191.192L182.329 14.9423L194.478 35.9611L215.59 -0.697327H219.473L210.511 14.9423L236.701 60.3669L248.95 39.4477L225.747 -0.597711H229.631L236.701 11.655L243.772 -0.597711H247.655L239.589 13.3484H261.896L253.83 -0.597711H257.713L265.78 13.3484H290.078L282.012 -0.597711H285.895L293.962 13.3484H318.26L310.194 -0.597711H314.077L322.144 13.3484H346.542L338.475 -0.597711H342.359L349.43 11.655L356.5 -0.597711H360.384L351.521 14.9423L364.666 37.6546H388.964L366.757 -0.597711H370.641L391.753 36.0608L403.902 14.9423L394.84 -0.697327H398.723L405.794 11.5554L412.864 -0.697327H416.748L408.682 13.2488H432.98L441.046 -0.697327H444.93L436.864 13.2488H459.17L451.104 -0.697327H454.988L463.054 13.2488H487.353L479.286 -0.697327H483.17L491.236 13.2488H517.427L525.493 -0.697327H529.377L520.613 14.9423L532.763 36.0608L553.874 -0.597711H557.758L548.795 14.9423L574.986 60.3669L587.135 39.3481L564.032 -0.597711H567.915L574.986 11.655L582.056 -0.597711H585.94L577.874 13.3484H600.18L592.114 -0.597711H595.998L604.064 13.3484H628.362L620.296 -0.597711H624.18L632.246 13.3484H656.545L648.478 -0.597711H652.362L660.428 13.3484H684.727L676.66 -0.597711H680.544L687.615 11.655L694.685 -0.597711H698.569L689.805 14.9423L702.95 37.6546H727.249L705.042 -0.597711H708.925L730.037 36.0608L742.186 14.9423L733.124 -0.697327H737.008L744.078 11.5554L751.149 -0.697327H755.033L746.966 13.2488H771.265L779.331 -0.697327H783.215L775.148 13.2488H797.654L789.588 -0.697327H793.472L801.538 13.2488H825.836L817.77 -0.697327H821.654L829.72 13.2488H855.91L863.977 -0.697327H867.86L858.898 14.9423L871.047 35.9611L892.159 -0.697327H896.042L887.08 14.9423L913.27 60.3669L925.42 39.3481L902.316 -0.597711H906.2L913.27 11.655L920.341 -0.597711H924.225L916.158 13.3484H938.465L930.399 -0.597711H934.283L942.349 13.3484H966.647L958.581 -0.597711H962.465L970.531 13.3484H994.829L986.763 -0.597711H990.647L998.713 13.3484H1023.01L1014.95 -0.597711H1018.83L1025.9 11.655L1032.97 -0.597711H1036.85L1027.79 15.0419L1040.94 37.7542H1065.23L1043.13 -0.597711H1047.01L1068.12 36.0608L1080.47 14.9423L1071.51 -0.597711H1075.39L1082.46 11.655L1089.53 -0.597711H1093.42L1085.35 13.3484H1109.65L1117.72 -0.597711H1121.6L1113.53 13.3484H1135.84L1127.77 -0.597711H1131.66L1139.72 13.3484H1164.02L1155.96 -0.597711H1159.84L1167.91 13.3484H1194.1L1202.16 -0.597711H1206.05L1196.98 15.0419L1209.13 36.0608L1230.24 -0.597711H1234.13L1225.07 15.0419L1251.26 60.4665L1263.41 39.4477L1240.3 -0.597711H1244.19L1251.26 11.655L1258.33 -0.597711H1262.21L1254.14 13.3484H1276.45L1268.38 -0.597711H1272.27L1280.33 13.3484H1304.63L1296.57 -0.597711H1300.45L1308.52 13.3484H1332.82L1324.75 -0.597711H1328.63L1336.7 13.3484H1361L1352.93 -0.597711H1356.81L1363.89 11.655L1370.96 -0.597711H1374.84L1365.78 15.0419L1378.92 37.7542H1403.22L1381.11 -0.597711H1385L1406.11 36.0608L1418.26 15.0419L1409.2 -0.597711H1413.08L1420.15 11.655L1427.22 -0.597711H1431.1L1423.04 13.3484H1433.29V16.7354H1423.04L1433.29 34.5665V44.3288L1423.04 62.16H1433.29V65.5469H1421.05L1408.9 86.5658H1433.19L1433.29 86.3665V93.1404L1422.04 112.665L1433.29 132.19V138.963L1420.05 116.052L1407.9 137.071L1421.05 159.783H1433.29V163.17H1423.04L1433.29 181.001V190.763L1423.04 208.595H1433.29V211.982H1423.04L1433.29 229.813V239.575L1423.04 257.406H1433.29V260.793H1423.04L1433.29 278.624V288.387L1423.04 306.218H1433.29V309.605H1423.04L1433.29 327.436V337.198L1423.04 355.029H1433.29V358.416H1421.05L1407.9 381.128L1420.05 402.147L1433.29 379.236V386.01L1422.04 405.534L1433.29 425.059V431.833L1433.19 431.633H1408.9L1421.05 452.652H1433.29V456.039H1423.04L1433.29 473.87V483.633L1423.04 501.464H1433.29V504.851H1423.04L1431.7 518.996ZM1339.09 501.663H1361.4L1350.24 482.338L1339.09 501.663ZM1310.91 501.663H1335.21L1347.35 480.644H1323.06L1310.91 501.663ZM1282.72 501.663H1305.03L1293.88 482.338L1282.72 501.663ZM1254.54 501.663H1276.85L1265.7 482.338L1254.54 501.663ZM1000.8 501.663H1023.11L1011.96 482.338L1000.8 501.663ZM972.622 501.663H996.92L1009.07 480.644H984.771L972.622 501.663ZM944.44 501.663H966.747L955.593 482.338L944.44 501.663ZM916.258 501.663H938.565L927.411 482.338L916.258 501.663ZM662.52 501.663H684.826L673.673 482.338L662.52 501.663ZM634.338 501.663H658.636L670.785 480.644H646.487L634.338 501.663ZM606.155 501.663H628.462L617.309 482.338L606.155 501.663ZM577.973 501.663H600.28L589.127 482.338L577.973 501.663ZM324.235 501.663H346.542L335.388 482.338L324.235 501.663ZM296.053 501.663H320.351L332.5 480.644H308.202L296.053 501.663ZM267.871 501.663H290.177L279.024 482.338L267.871 501.663ZM239.689 501.663H261.995L250.842 482.338L239.689 501.663ZM1170 501.663H1192.3L1181.15 482.338L1170 501.663ZM1141.81 501.663H1164.12L1152.97 482.338L1141.81 501.663ZM1113.63 501.663H1137.93L1150.08 480.644H1125.78L1113.63 501.663ZM1085.45 501.663H1109.75L1121.9 480.644H1097.6L1085.45 501.663ZM831.712 501.663H854.018L842.865 482.338L831.712 501.663ZM803.53 501.663H825.836L814.683 482.338L803.53 501.663ZM775.347 501.663H799.646L811.795 480.644H787.497L775.347 501.663ZM747.165 501.663H771.464L783.613 480.644H759.315L747.165 501.663ZM493.427 501.663H515.734L504.58 482.338L493.427 501.663ZM465.245 501.663H487.552L476.398 482.338L465.245 501.663ZM437.063 501.663H461.361L473.51 480.644H449.212L437.063 501.663ZM408.881 501.663H433.179L445.328 480.644H421.03L408.881 501.663ZM155.143 501.663H177.449L166.296 482.338L155.143 501.663ZM126.96 501.663H149.267L138.114 482.338L126.96 501.663ZM98.7783 501.663H123.077L135.226 480.644H110.928L98.7783 501.663ZM70.5963 501.663H94.8946L107.044 480.644H82.6458L70.5963 501.663ZM1212.22 480.644L1223.37 499.97L1234.53 480.644H1212.22ZM197.366 480.644L208.519 499.97L219.673 480.644H197.366ZM535.65 480.644L546.804 499.97L557.957 480.644H535.65ZM873.935 480.644L885.088 499.97L896.242 480.644H873.935ZM1352.23 478.951L1364.38 499.97L1376.53 478.951L1364.38 457.932L1352.23 478.951ZM337.38 478.951L349.529 499.97L361.678 478.951L349.529 457.932L337.38 478.951ZM-0.904583 478.951L11.2446 499.97L23.3937 478.951L11.2446 457.932L-0.904583 478.951ZM675.665 478.951L687.814 499.97L699.963 478.951L687.814 457.932L675.665 478.951ZM1184.04 480.644L1195.19 499.97L1206.34 480.644H1184.04ZM169.184 480.644L180.337 499.97L191.49 480.644H169.184ZM56.4554 480.644L67.6087 499.97L78.7621 480.644H56.4554ZM507.468 480.644L518.622 499.97L529.775 480.644H507.468ZM1409.59 480.644L1420.75 499.97L1431.9 480.644H1409.59ZM394.74 480.644L405.893 499.97L417.047 480.644H394.74ZM1013.95 478.951L1026.1 499.97L1038.25 478.951L1026.1 457.932L1013.95 478.951ZM733.025 480.644L744.178 499.97L755.331 480.644H733.025ZM1071.31 480.644L1082.46 499.97L1093.62 480.644H1071.31ZM1267.69 478.951L1279.84 499.97L1291.99 478.951L1279.84 457.932L1267.69 478.951ZM591.118 478.951L603.268 499.97L615.417 478.951L603.268 457.932L591.118 478.951ZM620.296 480.644L631.45 499.97L642.603 480.644H620.296ZM845.753 480.644L856.906 499.97L868.06 480.644H845.753ZM1296.87 480.644L1308.02 499.97L1319.17 480.644H1296.87ZM958.581 480.644L969.734 499.97L980.888 480.644H958.581ZM929.403 478.951L941.552 499.97L953.701 478.951L941.552 457.932L929.403 478.951ZM1140.82 454.545L1167.01 499.97L1179.16 478.951L1152.97 433.526L1140.82 454.545ZM464.249 454.545L490.44 499.97L502.589 478.951L476.398 433.526L464.249 454.545ZM282.012 480.644L293.165 499.97L304.318 480.644H282.012ZM252.834 478.951L264.983 499.97L277.132 478.951L264.983 457.932L252.834 478.951ZM802.534 454.545L828.724 499.97L840.873 478.951L814.683 433.526L802.534 454.545ZM125.965 454.545L152.155 499.97L164.304 478.951L138.114 433.526L125.965 454.545ZM1210.33 477.257H1234.63L1222.48 456.238H1198.18L1210.33 477.257ZM1182.15 477.257H1206.44L1194.29 456.238H1170L1182.15 477.257ZM872.043 477.257H896.341L884.192 456.238H859.894L872.043 477.257ZM843.861 477.257H868.159L856.01 456.238H831.712L843.861 477.257ZM533.758 477.257H558.057L545.908 456.238H521.609L533.758 477.257ZM505.576 477.257H529.875L517.725 456.238H493.427L505.576 477.257ZM195.474 477.257H219.772L207.623 456.238H183.325L195.474 477.257ZM167.292 477.257H191.59L179.441 456.238H155.143L167.292 477.257ZM1325.05 477.257H1347.35L1336.2 457.932L1325.05 477.257ZM1294.87 477.257H1319.17L1293.88 433.526L1281.73 454.545L1294.87 477.257ZM986.763 477.257H1009.07L997.916 457.932L986.763 477.257ZM956.589 477.257H980.888L955.593 433.526L943.444 454.545L956.589 477.257ZM648.478 477.257H670.785L659.632 457.932L648.478 477.257ZM618.305 477.257H642.603L617.309 433.526L605.16 454.545L618.305 477.257ZM310.194 477.257H332.5L321.347 457.932L310.194 477.257ZM280.02 477.257H304.318L279.024 433.526L266.875 454.545L280.02 477.257ZM1407.6 477.257H1431.9L1419.75 456.238H1395.45L1407.6 477.257ZM1381.41 477.257H1403.72L1392.57 457.932L1381.41 477.257ZM1069.32 477.257H1093.62L1081.47 456.238H1057.17L1069.32 477.257ZM1043.13 477.257H1065.43L1054.28 457.932L1043.13 477.257ZM731.033 477.257H755.331L743.182 456.238H718.884L731.033 477.257ZM704.842 477.257H727.149L715.996 457.932L704.842 477.257ZM392.748 477.257H417.047L404.898 456.238H380.599L392.748 477.257ZM366.558 477.257H388.865L377.711 457.932L366.558 477.257ZM54.4638 477.257H78.7621L66.6129 456.238H42.3146L54.4638 477.257ZM28.2733 477.257H50.58L39.4267 457.932L28.2733 477.257ZM1127.67 477.257H1149.98L1138.83 457.932L1127.67 477.257ZM1099.49 477.257H1121.8L1110.64 457.932L1099.49 477.257ZM789.389 477.257H811.695L800.542 457.932L789.389 477.257ZM761.207 477.257H783.513L772.36 457.932L767.281 466.698L761.207 477.257ZM451.104 477.257H473.411L462.258 457.932L451.104 477.257ZM422.922 477.257H445.229L434.075 457.932L425.91 472.077L422.922 477.257ZM112.82 477.257H135.126L123.973 457.932L112.82 477.257ZM84.6375 477.257H106.944L95.7908 457.932L85.5338 475.663L84.6375 477.257ZM14.1325 456.238L25.2858 475.564L36.5387 456.238H14.1325ZM1226.36 456.238L1237.51 475.564L1248.67 456.238H1226.36ZM211.507 456.238L222.66 475.564L233.813 456.238H211.507ZM1254.54 456.238L1265.7 475.564L1276.85 456.238H1254.54ZM1028.99 456.238L1040.14 475.564L1051.29 456.238H1028.99ZM888.076 456.238L899.229 475.564L910.383 456.238H888.076ZM1367.27 456.238L1378.42 475.564L1389.58 456.238H1367.27ZM577.973 456.238L589.127 475.564L600.28 456.238H577.973ZM70.5963 456.238L81.7496 475.564L92.9029 456.238H70.5963ZM549.791 456.238L560.945 475.564L572.098 456.238H549.791ZM352.417 456.238L363.57 475.564L374.724 456.238H352.417ZM1000.8 456.238L1011.96 475.564L1023.11 456.238H1000.8ZM916.258 456.238L927.411 475.564L938.565 456.238H916.258ZM239.689 456.238L250.842 475.564L261.995 456.238H239.689ZM690.702 456.238L701.855 475.564L713.008 456.238H690.702ZM408.881 456.238L420.034 475.564L431.188 456.238H408.881ZM662.52 456.238L673.673 475.564L684.826 456.238H662.52ZM324.235 456.238L335.388 475.564L346.542 456.238H324.235ZM1085.45 456.238L1096.6 475.564L1107.76 456.238H1085.45ZM1339.09 456.238L1350.24 475.564L1361.4 456.238H1339.09ZM747.165 456.238L758.319 475.564L769.472 456.238H747.165ZM619.3 430.139L645.491 475.564L657.64 454.545L631.45 409.12L619.3 430.139ZM1295.87 430.139L1322.06 475.564L1334.21 454.545L1308.02 409.12L1295.87 430.139ZM281.016 430.139L307.206 475.564L319.355 454.545L293.165 409.12L281.016 430.139ZM957.585 430.139L983.775 475.564L995.925 454.545L969.734 409.12L957.585 430.139ZM436.067 454.545L448.216 475.564L474.407 430.139L462.258 409.12L436.067 454.545ZM774.352 454.545L786.501 475.564L812.691 430.139L800.542 409.12L774.352 454.545ZM1112.64 454.545L1124.79 475.564L1150.98 430.139L1138.83 409.12L1112.64 454.545ZM97.7825 454.545L109.932 475.564L136.122 430.139L123.973 409.12L97.7825 454.545ZM1252.55 452.852H1276.85L1251.56 409.12L1239.41 430.139L1252.55 452.852ZM1224.37 452.852H1248.67L1236.52 431.833H1212.22L1224.37 452.852ZM1196.19 452.852H1220.48L1195.19 409.12L1183.04 430.139L1196.19 452.852ZM1170 452.852H1192.3L1181.15 433.526L1170 452.852ZM914.266 452.852H938.565L913.27 409.12L901.221 430.139L914.266 452.852ZM886.084 452.852H910.383L898.233 431.833H873.935L886.084 452.852ZM857.902 452.852H882.2L856.906 409.12L844.757 430.139L857.902 452.852ZM831.712 452.852H854.018L842.865 433.526L831.712 452.852ZM575.982 452.852H600.28L574.986 409.12L562.837 430.139L575.982 452.852ZM547.8 452.852H572.098L559.949 431.833H535.65L547.8 452.852ZM519.617 452.852H543.916L518.622 409.12L506.473 430.139L519.617 452.852ZM493.427 452.852H515.734L504.58 433.526L493.427 452.852ZM237.697 452.852H261.995L236.701 409.12L224.552 430.139L237.697 452.852ZM209.515 452.852H233.813L221.664 431.833H197.366L209.515 452.852ZM181.333 452.852H205.631L180.337 409.12L168.288 430.139L181.333 452.852ZM155.143 452.852H177.449L166.296 433.526L155.143 452.852ZM1393.56 452.852H1417.86L1392.57 409.12L1380.42 430.139L1393.56 452.852ZM1367.27 452.852H1389.58L1378.42 433.526L1367.27 452.852ZM1339.09 452.852H1363.39L1389.58 407.427H1365.28L1339.09 452.852ZM1083.46 452.852H1109.65L1121.8 431.833H1071.31L1083.46 452.852ZM1055.28 452.852H1079.57L1054.28 409.12L1042.13 430.139L1055.28 452.852ZM1028.99 452.852H1051.29L1040.14 433.526L1028.99 452.852ZM1000.8 452.852H1025.1L1051.29 407.427H1026.99L1000.8 452.852ZM745.174 452.852H771.364L783.513 431.833H733.025L745.174 452.852ZM716.992 452.852H741.29L715.996 409.12L703.847 430.139L716.992 452.852ZM690.702 452.852H713.008L701.855 433.526L690.702 452.852ZM662.52 452.852H686.818L713.008 407.427H688.71L662.52 452.852ZM406.889 452.852H433.08L445.229 431.833H394.74L406.889 452.852ZM378.707 452.852H403.005L377.711 409.12L365.562 430.139L378.707 452.852ZM352.417 452.852H374.724L363.57 433.526L352.417 452.852ZM324.235 452.852H348.533L374.724 407.427H350.525L324.235 452.852ZM68.6046 452.852H94.795L106.944 431.833H56.4554L68.6046 452.852ZM40.4225 452.852H64.7208L39.4267 409.12L27.2775 430.139L40.4225 452.852ZM14.1325 452.852H36.4392L25.2858 433.526L14.1325 452.852ZM647.483 430.139L659.632 451.158L671.781 430.139L659.632 409.12L647.483 430.139ZM469.826 415.496L490.44 451.258L502.589 430.239L489.543 407.427H465.245L469.826 415.496ZM1324.05 430.139L1336.2 451.158L1348.35 430.139L1336.2 409.12L1324.05 430.139ZM985.767 430.139L997.916 451.158L1010.07 430.139L997.916 409.12L985.767 430.139ZM803.53 407.427L828.824 451.158L840.973 430.139L827.828 407.427H803.53ZM309.198 430.139L321.347 451.158L333.496 430.139L321.347 409.12L309.198 430.139ZM1268.68 431.833L1279.84 451.158L1290.99 431.833H1268.68ZM930.399 431.833L941.552 451.158L952.705 431.833H930.399ZM592.114 431.833L603.268 451.158L614.421 431.833H592.114ZM1145.2 413.205L1167.11 451.158L1179.26 430.139L1166.11 407.427H1141.81L1145.2 413.205ZM139.607 429.442L152.155 451.158L164.304 430.139L151.259 407.427H126.96L139.607 429.442ZM253.83 431.833L264.983 451.158L276.136 431.833H253.83ZM1268.68 428.446H1290.99L1279.84 409.12L1268.68 428.446ZM1212.22 428.446H1236.52L1249.66 405.733L1237.51 384.715L1212.22 428.446ZM930.399 428.446H952.705L941.552 409.12L930.399 428.446ZM873.935 428.446H898.233L911.378 405.733L899.229 384.715L873.935 428.446ZM592.114 428.446H614.421L603.268 409.12L592.114 428.446ZM535.65 428.446H559.949L573.094 405.733L560.945 384.715L535.65 428.446ZM253.83 428.446H276.136L264.983 409.12L253.83 428.446ZM197.366 428.446H221.664L234.809 405.733L222.66 384.715L197.366 428.446ZM1409.59 428.446H1431.9L1420.75 409.12L1409.59 428.446ZM1099.49 428.446H1121.8L1110.64 409.12L1099.49 428.446ZM1071.31 428.446H1093.62L1082.46 409.12L1071.31 428.446ZM761.207 428.446H783.513L772.36 409.12L761.207 428.446ZM733.025 428.446H755.331L744.178 409.12L733.025 428.446ZM422.922 428.446H445.229L434.075 409.12L422.922 428.446ZM394.74 428.446H417.047L405.893 409.12L394.74 428.446ZM84.6375 428.446H106.944L95.7908 409.12L84.6375 428.446ZM56.4554 428.446H78.7621L67.6087 409.12L56.4554 428.446ZM1198.18 407.427L1209.33 426.752L1220.48 407.427H1198.18ZM521.609 407.427L532.763 426.752L543.916 407.427H521.609ZM183.325 407.427L194.478 426.752L205.631 407.427H183.325ZM859.894 407.427L871.047 426.752L882.2 407.427H859.894ZM831.712 407.427L842.865 426.752L854.018 407.427H831.712ZM1170 407.427L1181.15 426.752L1192.3 407.427H1170ZM493.427 407.427L504.58 426.752L515.734 407.427H493.427ZM1253.55 405.733L1265.7 426.752L1277.84 405.733L1265.7 384.715L1253.55 405.733ZM915.262 405.733L927.411 426.752L939.56 405.733L927.411 384.715L915.262 405.733ZM366.558 383.021L391.852 426.752L404.001 405.733L390.856 383.021H366.558ZM238.693 405.733L250.842 426.752L262.991 405.733L250.842 384.715L238.693 405.733ZM576.978 405.733L589.127 426.752L601.276 405.733L589.127 384.715L576.978 405.733ZM1281.73 405.733L1293.88 426.752L1306.03 405.733L1293.88 384.715L1281.73 405.733ZM1043.13 383.021L1068.42 426.752L1080.57 405.733L1067.43 383.021H1043.13ZM1381.41 383.021L1406.71 426.752L1418.86 405.733L1405.71 383.021H1381.41ZM155.143 407.427L166.296 426.752L177.449 407.427H155.143ZM704.842 383.021L730.137 426.752L742.286 405.733L729.141 383.021H704.842ZM28.2733 383.021L53.5675 426.752L65.7167 405.733L52.5717 383.021H28.2733ZM662.52 407.427L673.673 426.752L684.826 407.427H662.52ZM266.875 405.733L279.024 426.752L291.173 405.733L279.024 384.715L266.875 405.733ZM1000.8 407.427L1011.96 426.752L1023.11 407.427H1000.8ZM634.338 407.427L645.491 426.752L656.644 407.427H634.338ZM972.622 407.427L983.775 426.752L994.929 407.427H972.622ZM1310.91 407.427L1322.06 426.752L1333.21 407.427H1310.91ZM605.16 405.733L617.309 426.752L629.458 405.733L617.309 384.715L605.16 405.733ZM943.444 405.733L955.593 426.752L967.742 405.733L955.593 384.715L943.444 405.733ZM1339.09 407.427L1350.24 426.752L1361.4 407.427H1339.09ZM324.235 407.427L335.388 426.752L346.542 407.427H324.235ZM1084.45 405.733L1096.6 426.752L1108.75 405.733L1096.6 384.715L1084.45 405.733ZM296.053 407.427L307.206 426.752L318.36 407.427H296.053ZM746.17 405.733L758.319 426.752L770.468 405.733L758.319 384.715L746.17 405.733ZM69.6004 405.733L81.7496 426.752L93.8988 405.733L81.7496 384.715L69.6004 405.733ZM1112.64 405.733L1124.79 426.752L1136.93 405.733L1124.79 384.715L1112.64 405.733ZM774.352 405.733L786.501 426.752L798.65 405.733L786.501 384.715L774.352 405.733ZM436.067 405.733L448.216 426.752L460.365 405.733L448.216 384.715L436.067 405.733ZM407.885 405.733L420.034 426.752L432.183 405.733L420.034 384.715L407.885 405.733ZM97.7825 405.733L109.932 426.752L122.081 405.733L109.932 384.715L97.7825 405.733ZM1367.27 404.04H1389.58L1378.42 384.715L1367.27 404.04ZM1339.09 404.04H1361.4L1350.24 384.715L1339.09 404.04ZM1310.91 404.04H1335.21L1348.35 381.328L1336.2 360.309L1310.91 404.04ZM1196.19 404.04H1220.48L1194.29 358.615H1170L1182.64 380.531L1196.19 404.04ZM1170 404.04H1192.3L1181.15 384.715L1170 404.04ZM1141.81 404.04H1164.12L1152.97 384.715L1141.81 404.04ZM1028.99 404.04H1051.29L1040.14 384.715L1028.99 404.04ZM1000.8 404.04H1023.11L1011.96 384.715L1000.8 404.04ZM972.622 404.04H996.92L1010.07 381.328L997.916 360.309L972.622 404.04ZM857.902 404.04H882.2L856.01 358.615H831.712L844.359 380.531L857.902 404.04ZM831.712 404.04H854.018L842.865 384.715L831.712 404.04ZM803.53 404.04H825.836L814.683 384.715L803.53 404.04ZM690.702 404.04H713.008L701.855 384.715L690.702 404.04ZM662.52 404.04H684.826L673.673 384.715L662.52 404.04ZM634.338 404.04H658.636L671.781 381.328L659.632 360.309L634.338 404.04ZM519.617 404.04H543.916L517.725 358.615H493.427L519.617 404.04ZM493.427 404.04H515.734L504.58 384.715L493.427 404.04ZM465.245 404.04H487.552L476.398 384.715L465.245 404.04ZM352.417 404.04H374.724L363.57 384.715L352.417 404.04ZM324.235 404.04H346.542L335.388 384.715L324.235 404.04ZM296.053 404.04H320.351L333.496 381.328L321.347 360.309L296.053 404.04ZM181.333 404.04H205.631L179.441 358.615H155.143L167.79 380.531L181.333 404.04ZM155.143 404.04H177.449L166.296 384.715L155.143 404.04ZM126.96 404.04H149.267L138.114 384.715L126.96 404.04ZM14.1325 404.04H36.4392L25.2858 384.715L14.1325 404.04ZM1240.5 383.021L1251.65 402.347L1262.81 383.021H1240.5ZM902.217 383.021L913.37 402.347L924.523 383.021H902.217ZM563.932 383.021L575.085 402.347L586.239 383.021H563.932ZM1154.86 381.328L1167.01 402.347L1179.16 381.328L1167.01 360.309L1154.86 381.328ZM478.29 381.328L490.44 402.347L502.589 381.328L490.44 360.309L478.29 381.328ZM225.648 383.021L236.801 402.347L247.954 383.021H225.648ZM816.575 381.328L828.724 402.347L840.873 381.328L828.724 360.309L816.575 381.328ZM140.006 381.328L152.155 402.347L164.304 381.328L152.155 360.309L140.006 381.328ZM1295.87 381.328L1308.02 402.347L1334.21 356.922L1322.06 335.903L1295.87 381.328ZM1211.32 381.328L1223.47 402.347L1248.77 358.615H1224.47L1211.32 381.328ZM196.47 381.328L208.619 402.347L233.913 358.615H209.615L196.47 381.328ZM957.585 381.328L969.734 402.347L995.925 356.922L983.775 335.903L957.585 381.328ZM930.399 383.021L941.552 402.347L952.705 383.021H930.399ZM534.754 381.328L546.903 402.347L572.197 358.615H547.899L534.754 381.328ZM873.039 381.328L885.188 402.347L910.482 358.615H886.184L873.039 381.328ZM1268.68 383.021L1279.84 402.347L1290.99 383.021H1268.68ZM592.114 383.021L603.268 402.347L614.421 383.021H592.114ZM619.3 381.328L631.45 402.347L657.64 356.922L645.491 335.903L619.3 381.328ZM281.016 381.328L293.165 402.347L319.355 356.922L307.206 335.903L281.016 381.328ZM253.83 383.021L264.983 402.347L276.136 383.021H253.83ZM97.7825 356.922L123.973 402.347L136.122 381.328L109.932 335.903L97.7825 356.922ZM761.207 383.021L772.36 402.347L783.513 383.021H761.207ZM84.6375 383.021L95.7908 402.347L106.944 383.021H84.6375ZM436.067 356.922L462.258 402.347L474.407 381.328L448.216 335.903L436.067 356.922ZM1112.64 356.922L1138.83 402.347L1150.98 381.328L1124.79 335.903L1112.64 356.922ZM1352.23 381.328L1364.38 402.347L1389.68 358.615H1365.38L1352.23 381.328ZM1070.31 381.328L1082.46 402.347L1107.76 358.615H1083.46L1070.31 381.328ZM55.4596 381.328L67.6087 402.347L92.9029 358.615H68.6046L55.4596 381.328ZM732.029 381.328L744.178 402.347L769.472 358.615H745.174L732.029 381.328ZM1099.49 383.021L1110.64 402.347L1121.8 383.021H1099.49ZM675.665 381.328L687.814 402.347L713.108 358.615H688.81L675.665 381.328ZM422.922 383.021L434.075 402.347L445.229 383.021H422.922ZM774.352 356.922L800.542 402.347L812.691 381.328L786.501 335.903L774.352 356.922ZM1013.95 381.328L1026.1 402.347L1051.39 358.615H1027.09L1013.95 381.328ZM-0.904583 381.328L11.2446 402.347L36.5387 358.615H12.2404L-0.904583 381.328ZM337.38 381.328L349.529 402.347L374.823 358.615H350.525L337.38 381.328ZM393.744 381.328L405.893 402.347L431.188 358.615H406.889L393.744 381.328ZM1240.5 379.634H1290.99L1278.84 358.615H1252.65L1240.5 379.634ZM902.217 379.634H952.705L940.556 358.615H914.366L902.217 379.634ZM563.932 379.634H614.421L602.272 358.615H576.081L563.932 379.634ZM225.648 379.634H276.136L263.987 358.615H237.797L225.648 379.634ZM1381.41 379.634H1405.71L1417.86 358.615H1393.56L1381.41 379.634ZM1099.49 379.634H1121.8L1110.64 360.309L1099.49 379.634ZM1043.13 379.634H1067.43L1079.57 358.615H1055.28L1043.13 379.634ZM761.207 379.634H783.513L772.36 360.309L761.207 379.634ZM704.842 379.634H729.141L741.29 358.615H716.992L704.842 379.634ZM422.922 379.634H445.229L434.075 360.309L422.922 379.634ZM366.558 379.634H390.856L403.005 358.615H378.707L366.558 379.634ZM84.6375 379.634H106.944L95.7908 360.309L84.6375 379.634ZM28.2733 379.634H52.5717L64.7208 358.615H40.4225L28.2733 379.634ZM802.534 356.922L814.683 377.941L840.873 332.516L828.724 311.497L802.534 356.922ZM464.249 356.922L476.398 377.941L502.589 332.516L490.44 311.497L464.249 356.922ZM125.965 356.922L138.114 377.941L164.304 332.516L152.155 311.497L125.965 356.922ZM1140.82 356.922L1152.97 377.941L1179.16 332.516L1167.01 311.497L1140.82 356.922ZM943.444 356.922L955.593 377.941L980.888 334.21H956.589L943.444 356.922ZM1281.73 356.922L1293.88 377.941L1319.17 334.21H1294.87L1281.73 356.922ZM324.235 358.615L335.388 377.941L346.542 358.615H324.235ZM183.325 358.615L194.478 377.941L205.631 358.615H183.325ZM605.16 356.922L617.309 377.941L642.603 334.21H618.305L605.16 356.922ZM1000.8 358.615L1011.96 377.941L1023.11 358.615H1000.8ZM266.875 356.922L279.024 377.941L304.318 334.21H280.02L266.875 356.922ZM1198.18 358.615L1209.33 377.941L1220.48 358.615H1198.18ZM859.894 358.615L871.047 377.941L882.2 358.615H859.894ZM521.609 358.615L532.763 377.941L543.916 358.615H521.609ZM662.52 358.615L673.673 377.941L684.826 358.615H662.52ZM1339.09 358.615L1350.24 377.941L1361.4 358.615H1339.09ZM1254.54 355.228H1276.85L1265.7 335.903L1254.54 355.228ZM1226.36 355.228H1250.66L1262.81 334.21H1238.51L1226.36 355.228ZM1198.18 355.228H1220.48L1209.33 335.903L1198.18 355.228ZM1170 355.228H1192.3L1181.15 335.903L1170 355.228ZM916.258 355.228H938.565L927.411 335.903L916.258 355.228ZM888.076 355.228H912.374L924.523 334.21H900.225L888.076 355.228ZM859.894 355.228H882.2L871.047 335.903L859.894 355.228ZM831.712 355.228H854.018L842.865 335.903L831.712 355.228ZM577.973 355.228H600.28L589.127 335.903L577.973 355.228ZM549.791 355.228H574.09L586.239 334.21H561.94L549.791 355.228ZM521.609 355.228H543.916L532.763 335.803L521.609 355.228ZM493.427 355.228H515.734L504.58 335.903L493.427 355.228ZM239.689 355.228H261.995L250.842 335.903L239.689 355.228ZM211.507 355.228H235.805L247.954 334.21H223.656L211.507 355.228ZM183.325 355.228H205.631L194.478 335.903L183.325 355.228ZM155.143 355.228H177.449L166.296 335.803L155.143 355.228ZM1395.45 355.228H1417.76L1406.61 335.903L1395.45 355.228ZM1367.27 355.228H1391.57L1403.72 334.21H1379.42L1367.27 355.228ZM1339.09 355.228H1363.39L1375.54 334.21H1351.24L1339.09 355.228ZM1085.45 355.228H1107.76L1096.6 335.903L1085.45 355.228ZM1057.17 355.228H1079.47L1068.32 335.903L1057.17 355.228ZM1028.99 355.228H1053.28L1065.43 334.21H1041.14L1028.99 355.228ZM1000.8 355.228H1025.1L1037.25 334.21H1012.95L1000.8 355.228ZM747.165 355.228H769.472L758.319 335.903L747.165 355.228ZM718.884 355.228H741.19L730.037 335.903L718.884 355.228ZM690.702 355.228H715L727.149 334.21H702.851L690.702 355.228ZM662.52 355.228H686.818L698.967 334.21H674.669L662.52 355.228ZM408.881 355.228H431.188L420.034 335.903L408.881 355.228ZM380.599 355.228H402.906L391.753 335.903L380.599 355.228ZM352.417 355.228H376.715L388.865 334.21H364.566L352.417 355.228ZM324.235 355.228H348.533L360.683 334.21H336.384L324.235 355.228ZM70.5963 355.228H92.9029L81.7496 335.903L70.5963 355.228ZM42.3146 355.228H64.7208L53.5675 335.903L42.3146 355.228ZM14.1325 355.228H38.4308L50.58 334.21H26.2817L14.1325 355.228ZM789.389 334.11L800.542 353.435L811.695 334.11H789.389ZM451.104 334.11L462.258 353.435L473.411 334.11H451.104ZM1127.67 334.11L1138.83 353.435L1149.98 334.11H1127.67ZM112.82 334.11L123.973 353.435L135.126 334.11H112.82ZM939.76 350.447L941.552 353.535L953.701 332.516L941.552 311.497L929.403 332.516L939.76 350.447ZM254.228 334.807L264.983 353.435L277.132 332.417L264.983 311.398L252.834 332.417L254.228 334.807ZM1267.69 332.417L1279.84 353.435L1291.99 332.417L1279.84 311.398L1267.69 332.417ZM591.118 332.417L603.268 353.435L615.417 332.417L603.268 311.398L591.118 332.417ZM986.763 334.11L997.916 353.435L1009.07 334.11H986.763ZM648.478 334.11L659.632 353.435L670.785 334.11H648.478ZM84.6375 334.11L95.7908 353.435L106.944 334.11H84.6375ZM1325.05 334.11L1336.2 353.435L1347.35 334.11H1325.05ZM310.194 334.11L321.347 353.435L332.5 334.11H310.194ZM1183.14 332.417L1195.29 353.435L1207.44 332.417L1195.29 311.398L1183.14 332.417ZM761.207 334.11L772.36 353.435L783.513 334.11H761.207ZM506.572 332.417L518.721 353.435L530.87 332.417L518.721 311.398L506.572 332.417ZM1099.49 334.11L1110.64 353.435L1121.8 334.11H1099.49ZM197.366 334.11L208.519 353.435L219.673 334.11H197.366ZM873.935 334.11L885.088 353.435L896.242 334.11H873.935ZM422.922 334.11L434.075 353.435L445.229 334.11H422.922ZM1394.56 308.011L1420.75 353.435L1432.9 332.417L1406.71 286.992L1394.56 308.011ZM1212.22 334.11L1223.37 353.435L1234.53 334.11H1212.22ZM535.65 334.11L546.804 353.435L557.957 334.11H535.65ZM844.857 332.417L857.006 353.435L869.155 332.417L857.006 311.398L844.857 332.417ZM168.288 332.417L180.437 353.435L192.586 332.417L180.437 311.398L168.288 332.417ZM1056.27 308.011L1082.46 353.435L1094.61 332.417L1068.42 286.992L1056.27 308.011ZM717.987 308.011L744.178 353.435L756.327 332.417L730.137 286.992L717.987 308.011ZM41.4183 308.011L67.6087 353.435L79.7579 332.417L53.5675 286.992L41.4183 308.011ZM379.703 308.011L405.893 353.435L418.042 332.417L391.852 286.992L379.703 308.011ZM1125.78 330.723H1150.08L1137.93 309.704H1113.63L1125.78 330.723ZM1097.5 330.723H1121.8L1109.65 309.704H1085.45L1097.5 330.723ZM787.497 330.723H811.795L799.646 309.704H775.347L787.497 330.723ZM759.215 330.723H783.513L771.364 309.704H747.066L759.215 330.723ZM449.212 330.723H473.51L461.361 309.704H437.063L449.212 330.723ZM420.93 330.723H445.229L433.08 309.704H408.781L420.93 330.723ZM110.928 330.723H135.226L123.077 309.704H98.7783L110.928 330.723ZM82.6458 330.723H106.944L94.795 309.704H70.5963L82.6458 330.723ZM1240.5 330.723H1262.81L1251.65 311.398L1240.5 330.723ZM1210.33 330.723H1234.63L1209.33 286.992L1197.18 308.011L1210.33 330.723ZM902.217 330.723H924.523L913.37 311.398L902.217 330.723ZM872.043 330.723H896.341L871.047 286.992L858.898 308.011L872.043 330.723ZM563.932 330.723H586.239L575.085 311.398L563.932 330.723ZM533.758 330.723H558.057L532.763 286.992L520.613 308.011L533.758 330.723ZM225.648 330.723H247.954L236.801 311.398L225.648 330.723ZM195.474 330.723H219.772L194.478 286.992L182.329 308.011L195.474 330.723ZM1323.06 330.723H1347.35L1335.21 309.704H1310.91L1323.06 330.723ZM1296.87 330.723H1319.17L1308.02 311.398L1296.87 330.723ZM984.771 330.723H1009.07L996.92 309.704H972.622L984.771 330.723ZM958.581 330.723H980.888L969.734 311.398L958.581 330.723ZM646.487 330.723H670.785L658.636 309.704H634.338L646.487 330.723ZM620.296 330.723H642.603L631.45 311.398L620.296 330.723ZM308.202 330.723H332.5L320.351 309.704H296.053L308.202 330.723ZM282.012 330.723H304.318L293.165 311.398L282.012 330.723ZM1381.41 330.723H1403.72L1392.57 311.398L1381.41 330.723ZM1353.23 330.723H1375.54L1364.38 311.398L1353.23 330.723ZM1043.13 330.723H1065.43L1054.28 311.398L1043.13 330.723ZM1014.95 330.723H1037.25L1026.1 311.398L1018.73 324.248L1014.95 330.723ZM704.842 330.723H727.149L715.996 311.398L704.842 330.723ZM676.66 330.723H698.967L687.814 311.398L676.66 330.723ZM366.558 330.723H388.865L377.711 311.398L366.558 330.723ZM338.376 330.723H360.683L349.529 311.398L338.376 330.723ZM28.2733 330.723H50.58L39.4267 311.398L28.2733 330.723ZM0.0912499 330.723H22.3979L11.2446 311.398L0.0912499 330.723ZM606.155 309.704L617.309 329.03L628.462 309.704H606.155ZM831.712 309.704L842.865 329.03L854.018 309.704H831.712ZM1141.81 309.704L1152.97 329.03L1164.12 309.704H1141.81ZM1282.72 309.704L1293.88 329.03L1305.03 309.704H1282.72ZM493.427 309.704L504.58 329.03L515.734 309.704H493.427ZM1170 309.704L1181.15 329.03L1192.3 309.704H1170ZM465.245 309.704L476.398 329.03L487.552 309.704H465.245ZM803.53 309.704L814.683 329.03L825.836 309.704H803.53ZM126.96 309.704L138.114 329.03L149.267 309.704H126.96ZM1000.8 309.704L1011.96 329.03L1023.11 309.704H1000.8ZM662.52 309.704L673.673 329.03L684.826 309.704H662.52ZM267.871 309.704L279.024 329.03L290.177 309.704H267.871ZM155.143 309.704L166.296 329.03L177.449 309.704H155.143ZM324.235 309.704L335.388 329.03L346.542 309.704H324.235ZM916.258 309.704L927.411 329.03L938.565 309.704H916.258ZM1339.09 309.704L1350.24 329.03L1361.4 309.704H1339.09ZM239.689 309.704L250.842 329.03L261.995 309.704H239.689ZM944.44 309.704L955.593 329.03L966.747 309.704H944.44ZM1211.32 283.605L1237.51 329.03L1249.66 308.011L1223.47 262.586L1211.32 283.605ZM1254.54 309.704L1265.7 329.03L1276.85 309.704H1254.54ZM577.973 309.704L589.127 329.03L600.28 309.704H577.973ZM873.039 283.605L899.229 329.03L911.378 308.011L885.188 262.586L873.039 283.605ZM196.47 283.605L222.66 329.03L234.809 308.011L208.619 262.586L196.47 283.605ZM534.754 283.605L560.945 329.03L573.094 308.011L546.903 262.586L534.754 283.605ZM1028.09 308.011L1040.24 329.03L1066.43 283.605L1054.28 262.586L1028.09 308.011ZM351.521 308.011L363.67 329.03L389.86 283.605L377.711 262.586L351.521 308.011ZM1366.37 308.011L1378.52 329.03L1404.71 283.605L1392.57 262.586L1366.37 308.011ZM13.2362 308.011L25.3854 329.03L51.5758 283.605L39.4267 262.586L13.2362 308.011ZM689.805 308.011L701.955 329.03L728.145 283.605L715.996 262.586L689.805 308.011ZM1168 306.317H1192.3L1167.01 262.586L1154.86 283.605L1168 306.317ZM1139.82 306.317H1164.12L1151.97 285.298H1127.67L1139.82 306.317ZM1111.64 306.317H1135.94L1110.64 262.586L1098.5 283.605L1111.64 306.317ZM1085.45 306.317H1107.76L1096.6 286.992L1085.45 306.317ZM829.72 306.317H854.018L828.724 262.586L816.575 283.605L829.72 306.317ZM801.538 306.317H825.836L813.687 285.298H789.389L801.538 306.317ZM773.356 306.317H797.654L772.36 262.586L760.211 283.605L773.356 306.317ZM747.165 306.317H769.472L758.319 286.992L747.165 306.317ZM491.435 306.317H515.734L490.44 262.586L478.29 283.605L491.435 306.317ZM463.253 306.317H487.552L475.402 285.298H451.104L463.253 306.317ZM435.071 306.317H459.37L434.075 262.586L421.926 283.605L435.071 306.317ZM408.881 306.317H431.188L420.034 286.992L408.881 306.317ZM153.151 306.317H177.449L152.155 262.586L140.006 283.605L153.151 306.317ZM124.969 306.317H149.267L137.118 285.298H112.82L124.969 306.317ZM96.7867 306.317H121.085L95.7908 262.586L83.6417 283.605L96.7867 306.317ZM70.5963 306.317H92.9029L81.7496 286.992L70.5963 306.317ZM1337.2 306.317H1363.39L1375.54 285.298H1325.05L1337.2 306.317ZM1309.01 306.317H1333.31L1308.02 262.586L1295.87 283.605L1309.01 306.317ZM1282.72 306.317H1305.03L1293.88 286.992L1282.72 306.317ZM1254.54 306.317H1278.84L1305.03 260.893H1280.73L1254.54 306.317ZM998.912 306.317H1025.1L1037.25 285.298H986.763L998.912 306.317ZM970.73 306.317H995.028L969.734 262.586L957.585 283.605L970.73 306.317ZM944.44 306.317H966.747L955.593 286.992L944.44 306.317ZM916.258 306.317H940.556L966.747 260.893H942.448L916.258 306.317ZM660.628 306.317H686.818L698.967 285.298H648.478L660.628 306.317ZM632.445 306.317H656.744L631.45 262.586L619.3 283.605L632.445 306.317ZM606.155 306.317H628.462L617.309 286.992L606.155 306.317ZM577.973 306.317H602.272L628.462 260.893H604.164L577.973 306.317ZM322.343 306.317H348.533L360.683 285.298H310.194L322.343 306.317ZM294.161 306.317H318.459L293.165 262.586L281.016 283.605L294.161 306.317ZM267.871 306.317H290.177L279.024 286.992L267.871 306.317ZM239.689 306.317H263.987L290.177 260.893H265.879L252.435 284.203V284.302L252.236 284.502L239.689 306.317ZM1395.45 260.893L1420.75 304.624L1432.9 283.605L1419.75 260.893H1395.45ZM718.983 260.893L744.278 304.624L756.427 283.605L743.282 260.893H718.983ZM1057.17 260.893L1082.46 304.624L1094.61 283.605L1081.47 260.893H1057.17ZM42.4142 260.893L67.7083 304.624L79.8575 283.605L66.7125 260.893H42.4142ZM1184.04 285.298L1195.19 304.624L1206.34 285.298H1184.04ZM901.221 283.605L913.37 304.624L925.519 283.605L913.37 262.586L901.221 283.605ZM1239.51 283.605L1251.65 304.624L1263.8 283.605L1251.65 262.586L1239.51 283.605ZM845.753 285.298L856.906 304.624L868.06 285.298H845.753ZM224.652 283.605L236.801 304.624L248.95 283.605L236.801 262.586L224.652 283.605ZM380.599 260.893L405.893 304.624L418.042 283.605L404.898 260.893H380.599ZM562.936 283.605L575.085 304.624L587.235 283.605L575.085 262.586L562.936 283.605ZM507.468 285.298L518.622 304.624L529.775 285.298H507.468ZM169.184 285.298L180.337 304.624L191.49 285.298H169.184ZM1184.04 281.912H1206.34L1195.19 262.586L1184.04 281.912ZM1127.67 281.912H1151.97L1165.12 259.199L1152.97 238.18L1127.67 281.912ZM845.753 281.912H868.06L856.906 262.586L845.753 281.912ZM789.389 281.912H813.687L826.832 259.199L814.683 238.18L789.389 281.912ZM507.468 281.912H529.775L518.622 262.586L507.468 281.912ZM451.104 281.912H475.402L488.548 259.199L476.398 238.18L451.104 281.912ZM169.184 281.912H191.49L180.337 262.586L169.184 281.912ZM112.82 281.912H137.118L150.263 259.199L138.114 238.18L112.82 281.912ZM1353.23 281.912H1375.54L1364.38 262.586L1353.23 281.912ZM1325.05 281.912H1347.35L1336.2 262.586L1325.05 281.912ZM1014.95 281.912H1037.25L1026.1 262.586L1014.95 281.912ZM986.763 281.912H1009.07L997.916 262.586L986.763 281.912ZM676.66 281.912H698.967L687.814 262.586L676.66 281.912ZM648.478 281.912H670.785L659.632 262.586L648.478 281.912ZM338.376 281.912H360.683L349.529 262.586L338.376 281.912ZM310.194 281.912H332.5L321.347 262.586L310.194 281.912ZM0.0912499 281.912H22.3979L11.2446 262.586L0.0912499 281.912ZM98.7783 260.893L109.932 280.218L121.085 260.893H98.7783ZM1113.63 260.893L1124.79 280.218L1135.94 260.893H1113.63ZM775.347 260.893L786.501 280.218L797.654 260.893H775.347ZM437.063 260.893L448.216 280.218L459.37 260.893H437.063ZM1169 259.199L1181.15 280.218L1193.3 259.199L1181.15 238.18L1169 259.199ZM830.716 259.199L842.865 280.218L855.014 259.199L842.865 238.18L830.716 259.199ZM408.881 260.893L420.034 280.218L431.188 260.893H408.881ZM492.431 259.199L504.58 280.218L516.73 259.199L504.58 238.18L492.431 259.199ZM70.5963 260.893L81.7496 280.218L92.9029 260.893H70.5963ZM154.147 259.199L166.296 280.218L178.445 259.199L166.296 238.18L154.147 259.199ZM747.165 260.893L758.319 280.218L769.472 260.893H747.165ZM958.581 236.487L983.875 280.218L996.024 259.199L982.879 236.487H958.581ZM282.012 236.487L307.306 280.218L319.455 259.199L306.31 236.487H282.012ZM1085.45 260.893L1096.6 280.218L1107.76 260.893H1085.45ZM1296.87 236.487L1322.16 280.218L1334.31 259.199L1321.16 236.487H1296.87ZM1226.36 260.893L1237.51 280.218L1248.67 260.893H1226.36ZM620.296 236.487L645.59 280.218L657.74 259.199L644.595 236.487H620.296ZM858.898 259.199L871.047 280.218L883.196 259.199L871.047 238.18L858.898 259.199ZM1197.18 259.199L1209.33 280.218L1221.48 259.199L1209.33 238.18L1197.18 259.199ZM520.613 259.199L532.763 280.218L544.912 259.199L532.763 238.18L520.613 259.199ZM239.689 260.893L250.842 280.218L261.995 260.893H239.689ZM1254.54 260.893L1265.7 280.218L1276.85 260.893H1254.54ZM577.973 260.893L589.127 280.218L600.28 260.893H577.973ZM888.076 260.893L899.229 280.218L910.383 260.893H888.076ZM182.329 259.199L194.478 280.218L206.627 259.199L194.478 238.18L182.329 259.199ZM916.258 260.893L927.411 280.218L938.565 260.893H916.258ZM1338.09 259.199L1350.24 280.218L1362.39 259.199L1350.24 238.18L1338.09 259.199ZM999.808 259.199L1011.96 280.218L1024.11 259.199L1011.96 238.18L999.808 259.199ZM661.623 259.199L673.772 280.218L685.922 259.199L673.772 238.18L661.623 259.199ZM323.339 259.199L335.488 280.218L347.637 259.199L335.488 238.18L323.339 259.199ZM1366.37 259.199L1378.52 280.218L1390.67 259.199L1378.52 238.18L1366.37 259.199ZM13.2362 259.199L25.3854 280.218L37.5346 259.199L25.3854 238.18L13.2362 259.199ZM1028.09 259.199L1040.24 280.218L1052.39 259.199L1040.24 238.18L1028.09 259.199ZM351.521 259.199L363.67 280.218L375.819 259.199L363.67 238.18L351.521 259.199ZM549.791 260.893L560.945 280.218L572.098 260.893H549.791ZM211.507 260.893L222.66 280.218L233.813 260.893H211.507ZM689.805 259.199L701.955 280.218L714.104 259.199L701.955 238.18L689.805 259.199ZM1395.45 257.506H1417.76L1406.61 238.18L1395.45 257.506ZM1282.72 257.506H1305.03L1293.88 238.18L1282.72 257.506ZM1254.54 257.506H1276.85L1265.7 238.18L1254.54 257.506ZM1226.36 257.506H1250.66L1263.8 234.793L1251.65 213.775L1226.36 257.506ZM1111.64 257.506H1135.94L1109.75 212.081H1085.45L1098.1 233.997L1111.64 257.506ZM1085.45 257.506H1107.76L1096.6 238.18L1085.45 257.506ZM1057.17 257.506H1079.47L1068.32 238.18L1057.17 257.506ZM944.44 257.506H966.747L955.593 238.18L944.44 257.506ZM916.258 257.506H938.565L927.411 238.18L916.258 257.506ZM888.076 257.506H912.374L925.519 234.793L913.37 213.775L888.076 257.506ZM773.356 257.506H797.654L771.464 212.081H747.165L773.356 257.506ZM747.165 257.506H769.472L758.319 238.18L747.165 257.506ZM718.983 257.506H741.29L730.137 238.18L718.983 257.506ZM606.155 257.506H628.462L617.309 238.18L606.155 257.506ZM577.973 257.506H600.28L589.127 238.18L577.973 257.506ZM549.791 257.506H574.09L587.235 234.793L575.085 213.775L549.791 257.506ZM435.071 257.506H459.37L433.179 212.081H408.881L435.071 257.506ZM408.881 257.506H431.188L420.034 238.18L408.881 257.506ZM380.599 257.506H402.906L391.753 238.18L380.599 257.506ZM267.871 257.506H290.177L279.024 238.18L267.871 257.506ZM239.689 257.506H261.995L250.842 238.18L239.689 257.506ZM211.507 257.506H235.805L248.95 234.793L236.801 213.775L211.507 257.506ZM96.7867 257.506H121.085L94.8946 212.081H70.5963L96.7867 257.506ZM70.5963 257.506H92.9029L81.7496 238.18L70.5963 257.506ZM42.4142 257.506H64.7208L53.5675 238.18L42.4142 257.506ZM1408.6 234.793L1420.75 255.812L1432.9 234.793L1420.75 213.775L1408.6 234.793ZM1155.86 236.487L1167.01 255.812L1178.16 236.487H1155.86ZM817.571 236.487L828.724 255.812L839.878 236.487H817.571ZM479.286 236.487L490.44 255.812L501.593 236.487H479.286ZM55.4596 234.793L67.6087 255.812L79.7579 234.793L67.6087 213.775L55.4596 234.793ZM141.002 236.487L152.155 255.812L163.308 236.487H141.002ZM393.744 234.793L405.893 255.812L418.042 234.793L405.893 213.775L393.744 234.793ZM1126.68 234.793L1138.83 255.812L1164.12 212.081H1139.82L1126.68 234.793ZM732.029 234.793L744.178 255.812L756.327 234.793L744.178 213.775L732.029 234.793ZM1070.31 234.793L1082.46 255.812L1094.61 234.793L1082.46 213.775L1070.31 234.793ZM111.824 234.793L123.973 255.812L149.267 212.081H124.969L111.824 234.793ZM873.039 234.793L885.188 255.812L911.378 210.388L899.229 189.269L873.039 234.793ZM450.108 234.793L462.258 255.812L474.905 233.897L487.552 212.081H463.253L450.108 234.793ZM1211.32 234.793L1223.47 255.812L1249.66 210.388L1237.51 189.369L1211.32 234.793ZM788.393 234.793L800.542 255.812L813.189 233.897L825.836 212.081H801.538L788.393 234.793ZM1184.04 236.487L1195.19 255.812L1206.34 236.487H1184.04ZM507.468 236.487L518.622 255.812L529.775 236.487H507.468ZM169.184 236.487L180.337 255.812L191.49 236.487H169.184ZM196.47 234.793L208.619 255.812L234.809 210.388L222.66 189.269L196.47 234.793ZM534.754 234.793L546.903 255.812L573.094 210.388L560.945 189.269L534.754 234.793ZM845.753 236.487L856.906 255.812L868.06 236.487H845.753ZM929.403 234.793L941.552 255.812L966.846 212.081H942.548L929.403 234.793ZM1028.09 210.388L1054.28 255.812L1066.43 234.793L1040.24 189.369L1028.09 210.388ZM252.834 234.793L264.983 255.812L290.277 212.081H265.979L252.834 234.793ZM351.521 210.388L377.711 255.812L389.86 234.793L363.57 189.269L351.521 210.388ZM689.805 210.388L715.996 255.812L728.145 234.793L701.855 189.269L689.805 210.388ZM1267.69 234.793L1279.84 255.812L1305.13 212.081H1280.83L1267.69 234.793ZM13.2362 210.388L39.4267 255.812L51.5758 234.793L25.2858 189.269L13.2362 210.388ZM1014.95 236.487L1026.1 255.812L1037.25 236.487H1014.95ZM1366.37 210.388L1392.57 255.812L1404.71 234.793L1378.52 189.369L1366.37 210.388ZM1324.05 234.793L1336.2 255.812L1361.49 212.081H1337.2L1324.05 234.793ZM338.376 236.487L349.529 255.812L360.683 236.487H338.376ZM0.0912499 236.487L11.2446 255.812L22.3979 236.487H0.0912499ZM676.66 236.487L687.814 255.812L698.967 236.487H676.66ZM1353.23 236.487L1364.38 255.812L1375.54 236.487H1353.23ZM309.198 234.793L321.347 255.812L346.641 212.081H322.343L309.198 234.793ZM647.483 234.793L659.632 255.812L684.926 212.081H660.628L647.483 234.793ZM591.118 234.793L603.268 255.812L628.562 212.081H604.263L591.118 234.793ZM985.767 234.793L997.916 255.812L1023.21 212.081H998.912L985.767 234.793ZM1155.86 233.1H1206.34L1194.19 212.081H1168L1155.86 233.1ZM817.571 233.1H868.06L855.91 212.081H829.72L817.571 233.1ZM479.286 233.1H529.775L517.626 212.081H491.435L479.286 233.1ZM141.002 233.1H191.49L179.341 212.081H153.151L141.002 233.1ZM1353.23 233.1H1375.54L1364.38 213.775L1353.23 233.1ZM1296.87 233.1H1321.16L1333.31 212.081H1309.01L1296.87 233.1ZM1014.95 233.1H1037.25L1026.1 213.775L1014.95 233.1ZM958.581 233.1H982.879L995.028 212.081H970.73L958.581 233.1ZM676.66 233.1H698.967L687.814 213.775L676.66 233.1ZM620.296 233.1H644.595L656.744 212.081H632.445L620.296 233.1ZM338.376 233.1H360.683L349.529 213.775L338.376 233.1ZM282.012 233.1H306.31L318.459 212.081H294.161L282.012 233.1ZM0.0912499 233.1H22.3979L11.2446 213.775L0.0912499 233.1ZM1056.27 210.388L1068.42 231.407L1094.61 185.982L1082.46 164.963L1056.27 210.388ZM1394.56 210.388L1406.71 231.407L1432.9 185.982L1420.75 164.963L1394.56 210.388ZM717.987 210.388L730.137 231.407L756.327 185.982L744.178 164.963L717.987 210.388ZM41.4183 210.388L53.5675 231.407L79.7579 185.982L67.6087 164.963L41.4183 210.388ZM379.703 210.388L391.852 231.407L418.042 185.982L405.893 164.963L379.703 210.388ZM520.613 210.388L532.763 231.407L558.057 187.675H533.758L520.613 210.388ZM1197.18 210.388L1209.33 231.407L1234.63 187.675H1210.33L1197.18 210.388ZM858.898 210.388L871.047 231.407L896.341 187.675H872.043L858.898 210.388ZM1113.63 212.081L1124.79 231.407L1135.94 212.081H1113.63ZM577.973 212.081L589.127 231.407L600.28 212.081H577.973ZM437.063 212.081L448.216 231.407L459.37 212.081H437.063ZM182.329 210.388L194.478 231.407L219.772 187.675H195.474L182.329 210.388ZM775.347 212.081L786.501 231.407L797.654 212.081H775.347ZM239.689 212.081L250.842 231.407L261.995 212.081H239.689ZM98.7783 212.081L109.932 231.407L121.085 212.081H98.7783ZM1254.54 212.081L1265.7 231.407L1276.85 212.081H1254.54ZM916.258 212.081L927.411 231.407L938.565 212.081H916.258ZM1170 208.694H1192.3L1181.15 189.369L1170 208.694ZM1141.81 208.694H1166.11L1178.26 187.675H1153.96L1141.81 208.694ZM1113.63 208.694H1135.94L1124.79 189.369L1113.63 208.694ZM1085.45 208.694H1107.76L1096.6 189.369L1085.45 208.694ZM831.712 208.694H854.018L842.865 189.269L831.712 208.694ZM803.53 208.694H827.828L839.977 187.675H815.679L803.53 208.694ZM775.347 208.694H797.654L786.501 189.269L775.347 208.694ZM747.165 208.694H769.472L758.319 189.269L747.165 208.694ZM493.427 208.694H515.734L504.58 189.269L493.427 208.694ZM465.245 208.694H489.543L501.693 187.675H477.394L465.245 208.694ZM437.063 208.694H459.37L448.216 189.269L437.063 208.694ZM408.881 208.694H431.188L420.034 189.269L408.881 208.694ZM155.143 208.694H177.449L166.296 189.269L155.143 208.694ZM126.96 208.694H151.259L163.408 187.675H139.11L126.96 208.694ZM98.7783 208.694H121.085L109.932 189.269L98.7783 208.694ZM70.5963 208.694H92.9029L81.7496 189.269L70.5963 208.694ZM1339.09 208.694H1361.4L1350.24 189.369L1339.09 208.694ZM1310.91 208.694H1333.21L1322.06 189.369L1310.91 208.694ZM1282.72 208.694H1307.02L1319.17 187.675H1294.87L1282.72 208.694ZM1254.54 208.694H1278.84L1290.99 187.675H1266.69L1254.54 208.694ZM1000.8 208.694H1023.11L1011.96 189.369L1000.8 208.694ZM972.622 208.694H994.929L983.775 189.269L972.622 208.694ZM944.44 208.694H968.738L980.888 187.675H956.589L944.44 208.694ZM916.258 208.694H940.556L952.705 187.675H928.407L916.258 208.694ZM662.52 208.694H684.826L673.673 189.269L662.52 208.694ZM634.338 208.694H656.644L645.491 189.269L634.338 208.694ZM606.155 208.694H630.454L642.603 187.675H618.305L606.155 208.694ZM577.973 208.694H602.272L614.421 187.675H590.122L577.973 208.694ZM324.235 208.694H346.542L335.388 189.269L324.235 208.694ZM296.053 208.694H318.36L307.206 189.269L296.053 208.694ZM267.871 208.694H292.169L304.318 187.675H280.02L267.871 208.694ZM239.689 208.694H263.987L276.136 187.675H251.838L239.689 208.694ZM1381.41 187.576L1392.57 206.901L1403.72 187.576H1381.41ZM704.842 187.576L715.996 206.901L727.149 187.576H704.842ZM1043.13 187.576L1054.28 206.901L1065.43 187.576H1043.13ZM366.558 187.576L377.711 206.901L388.865 187.576H366.558ZM28.2733 187.576L39.4267 206.901L50.58 187.576H28.2733ZM1183.14 185.882L1195.29 206.901L1207.44 185.882L1195.29 164.863L1183.14 185.882ZM506.572 185.882L518.721 206.901L530.87 185.882L518.721 164.863L506.572 185.882ZM168.288 185.882L180.437 206.901L192.586 185.882L180.437 164.863L168.288 185.882ZM225.648 187.576L236.801 206.901L247.954 187.576H225.648ZM563.932 187.576L575.085 206.901L586.239 187.576H563.932ZM902.217 187.576L913.37 206.901L924.523 187.576H902.217ZM1127.67 187.576L1138.83 206.901L1149.98 187.576H1127.67ZM844.857 185.882L857.006 206.901L869.155 185.882L857.006 164.863L844.857 185.882ZM1240.5 187.576L1251.65 206.901L1262.81 187.576H1240.5ZM1014.95 187.576L1026.1 206.901L1037.25 187.576H1014.95ZM338.376 187.576L349.529 206.901L360.683 187.576H338.376ZM0.0912499 187.576L11.2446 206.901L22.3979 187.576H0.0912499ZM676.66 187.576L687.814 206.901L698.967 187.576H676.66ZM451.104 187.576L462.258 206.901L473.411 187.576H451.104ZM112.82 187.576L123.973 206.901L135.126 187.576H112.82ZM789.389 187.576L800.542 206.901L811.695 187.576H789.389ZM1309.91 161.477L1336.1 206.901L1348.25 185.882L1322.06 140.458L1309.91 161.477ZM1098.5 185.882L1110.64 206.901L1122.79 185.882L1110.64 164.863L1098.5 185.882ZM971.626 161.477L997.817 206.901L1009.97 185.882L983.775 140.458L971.626 161.477ZM1353.23 187.576L1364.38 206.901L1375.54 187.576H1353.23ZM760.211 185.882L772.36 206.901L784.509 185.882L772.36 164.863L760.211 185.882ZM83.6417 185.882L95.7908 206.901L107.94 185.882L95.7908 164.863L83.6417 185.882ZM295.057 161.477L321.247 206.901L333.397 185.882L307.206 140.458L295.057 161.477ZM421.926 185.882L434.075 206.901L446.225 185.882L434.075 164.863L421.926 185.882ZM633.342 161.477L659.532 206.901L671.681 185.882L645.491 140.458L633.342 161.477ZM1379.42 184.189H1403.72L1391.57 163.17H1367.27L1379.42 184.189ZM1351.24 184.189H1375.54L1363.39 163.17H1339.09L1351.24 184.189ZM1041.14 184.189H1065.43L1053.28 163.17H1028.99L1041.14 184.189ZM1012.95 184.189H1037.25L1025.1 163.17H1000.8L1012.95 184.189ZM702.851 184.189H727.149L715 163.17H690.702L702.851 184.189ZM674.669 184.189H698.967L686.818 163.17H662.52L674.669 184.189ZM364.566 184.189H388.865L376.715 163.17H352.417L364.566 184.189ZM336.384 184.189H360.683L348.533 163.17H324.235L336.384 184.189ZM26.2817 184.189H50.58L38.4308 163.17H14.1325L26.2817 184.189ZM1155.86 184.189H1178.16L1167.01 164.863L1155.86 184.189ZM1125.78 184.189H1150.08L1124.79 140.458L1112.64 161.477L1125.78 184.189ZM817.571 184.189H839.878L828.724 164.863L817.571 184.189ZM787.497 184.189H811.795L786.501 140.458L774.352 161.477L787.497 184.189ZM479.286 184.189H501.593L490.44 164.863L479.286 184.189ZM449.212 184.189H473.51L448.216 140.458L436.067 161.477L449.212 184.189ZM141.002 184.189H163.308L152.155 164.863L141.002 184.189ZM110.928 184.189H135.226L109.932 140.458L97.7825 161.477L110.928 184.189ZM1238.51 184.189H1262.81L1250.66 163.17H1226.36L1238.51 184.189ZM1212.22 184.189H1234.53L1223.37 164.863L1212.22 184.189ZM900.225 184.189H924.523L912.374 163.17H888.076L900.225 184.189ZM873.935 184.189H896.242L885.088 164.863L873.935 184.189ZM561.94 184.189H586.239L574.09 163.17H549.791L561.94 184.189ZM535.65 184.189H557.957L546.804 164.863L535.65 184.189ZM223.656 184.189H247.954L235.805 163.17H211.507L223.656 184.189ZM197.366 184.189H219.673L208.519 164.863L197.366 184.189ZM1296.87 184.189H1319.17L1308.02 164.863L1296.87 184.189ZM1268.68 184.189H1290.99L1279.84 164.863L1268.68 184.189ZM958.581 184.189H980.888L969.734 164.863L958.581 184.189ZM930.399 184.189H952.705L941.552 164.863L930.399 184.189ZM620.296 184.189H642.603L631.45 164.863L620.296 184.189ZM592.114 184.189H614.421L603.268 164.863L592.114 184.189ZM282.012 184.189H304.318L293.165 164.863L282.012 184.189ZM253.83 184.189H276.136L264.983 164.863L253.83 184.189ZM1395.45 163.17L1406.61 182.495L1417.76 163.17H1395.45ZM42.3146 163.17L53.4679 182.495L64.7208 163.17H42.3146ZM1057.17 163.17L1068.32 182.495L1079.47 163.17H1057.17ZM718.884 163.17L730.037 182.495L741.19 163.17H718.884ZM1198.18 163.17L1209.33 182.495L1220.48 163.17H1198.18ZM521.609 163.17L532.763 182.495L543.916 163.17H521.609ZM380.599 163.17L391.753 182.495L402.906 163.17H380.599ZM1085.45 163.17L1096.6 182.495L1107.76 163.17H1085.45ZM408.881 163.17L420.034 182.495L431.188 163.17H408.881ZM183.325 163.17L194.478 182.495L205.631 163.17H183.325ZM859.894 163.17L871.047 182.495L882.2 163.17H859.894ZM747.165 163.17L758.319 182.495L769.472 163.17H747.165ZM70.5963 163.17L81.7496 182.495L92.9029 163.17H70.5963ZM239.689 163.17L250.842 182.495L261.995 163.17H239.689ZM1254.54 163.17L1265.7 182.495L1276.85 163.17H1254.54ZM577.973 163.17L589.127 182.495L600.28 163.17H577.973ZM916.258 163.17L927.411 182.495L938.565 163.17H916.258ZM155.143 163.17L166.296 182.495L177.449 163.17H155.143ZM493.427 163.17L504.58 182.495L515.734 163.17H493.427ZM1170 163.17L1181.15 182.495L1192.3 163.17H1170ZM1126.68 137.071L1152.87 182.495L1165.02 161.477L1138.83 116.052L1126.68 137.071ZM831.712 163.17L842.865 182.495L854.018 163.17H831.712ZM788.393 137.071L814.583 182.495L826.733 161.477L800.542 116.052L788.393 137.071ZM450.108 137.071L476.299 182.495L488.448 161.477L462.258 116.052L450.108 137.071ZM111.824 137.071L138.014 182.495L150.163 161.477L123.973 116.052L111.824 137.071ZM605.16 161.477L617.309 182.495L643.499 137.071L631.35 116.052L605.16 161.477ZM266.875 161.477L279.024 182.495L305.215 137.071L293.065 116.052L266.875 161.477ZM1281.73 161.477L1293.88 182.495L1320.07 137.071L1307.92 116.052L1281.73 161.477ZM943.444 161.477L955.593 182.495L981.784 137.071L969.635 116.052L943.444 161.477ZM1393.56 159.783H1417.86L1405.71 138.764H1381.41L1393.56 159.783ZM1365.38 159.783H1389.68L1364.38 116.052L1352.23 137.071L1365.38 159.783ZM1339.09 159.783H1361.4L1350.24 140.458L1339.09 159.783ZM1083.46 159.783H1107.76L1082.46 116.052L1070.31 137.071L1083.46 159.783ZM1055.28 159.783H1079.57L1067.43 138.764H1043.13L1055.28 159.783ZM1027.09 159.783H1051.39L1026.1 116.052L1013.95 137.071L1027.09 159.783ZM1000.8 159.783H1023.11L1011.96 140.458L1000.8 159.783ZM745.174 159.783H769.472L744.178 116.052L732.029 137.071L745.174 159.783ZM716.992 159.783H741.29L729.141 138.764H704.842L716.992 159.783ZM688.81 159.783H713.108L700.461 137.868L701.258 137.37L700.361 137.868L687.714 116.052L675.565 137.071L688.81 159.783ZM662.52 159.783H684.826L673.673 140.458L662.52 159.783ZM406.889 159.783H431.188L405.893 116.052L393.744 137.071L406.889 159.783ZM378.707 159.783H403.005L390.856 138.764H366.558L378.707 159.783ZM350.525 159.783H374.823L349.529 116.052L337.38 137.071L350.525 159.783ZM324.235 159.783H346.542L335.388 140.458L324.235 159.783ZM68.6046 159.783H92.9029L67.6087 116.052L55.4596 137.071L68.6046 159.783ZM40.4225 159.783H64.7208L52.5717 138.764H28.2733L40.4225 159.783ZM12.2404 159.783H36.5387L11.2446 116.052L-0.904583 137.071L12.2404 159.783ZM1252.55 159.783H1278.74L1290.89 138.764H1240.4L1252.55 159.783ZM1224.37 159.783H1248.67L1223.37 116.052L1211.22 137.071L1224.37 159.783ZM1198.18 159.783H1220.48L1209.33 140.458L1198.18 159.783ZM1170 159.783H1194.29L1220.48 114.358H1196.19L1170 159.783ZM914.266 159.783H940.457L952.606 138.764H902.217L914.266 159.783ZM886.084 159.783H910.383L885.088 116.052L872.939 137.071L886.084 159.783ZM859.894 159.783H882.2L871.047 140.458L859.894 159.783ZM831.712 159.783H856.01L882.2 114.358H857.902L831.712 159.783ZM575.982 159.783H602.172L614.321 138.764H563.833L575.982 159.783ZM547.8 159.783H572.098L546.804 116.052L534.754 137.071L547.8 159.783ZM521.609 159.783H543.916L532.763 140.458L521.609 159.783ZM493.427 159.783H517.725L543.916 114.358H519.617L506.174 137.668V137.768L505.975 137.967L493.427 159.783ZM237.697 159.783H263.888L276.037 138.764H225.548L237.697 159.783ZM209.515 159.783H233.813L208.519 116.052L196.37 137.071L209.515 159.783ZM183.325 159.783H205.631L194.478 140.458L183.325 159.783ZM155.143 159.783H179.441L205.631 114.358H181.333L155.143 159.783ZM1310.91 114.358L1336.2 158.09L1348.35 137.071L1335.21 114.358H1310.91ZM634.338 114.358L659.632 158.09L671.781 137.071L658.636 114.358H634.338ZM1099.49 138.764L1110.64 158.09L1121.8 138.764H1099.49ZM296.053 114.358L321.347 158.09L333.496 137.071L320.351 114.358H296.053ZM1154.86 137.071L1167.01 158.09L1179.16 137.071L1167.01 116.052L1154.86 137.071ZM761.207 138.764L772.36 158.09L783.513 138.764H761.207ZM140.006 137.071L152.155 158.09L164.304 137.071L152.155 116.052L140.006 137.071ZM478.29 137.071L490.44 158.09L502.589 137.071L490.44 116.052L478.29 137.071ZM972.622 114.358L997.916 158.09L1010.07 137.071L996.92 114.358H972.622ZM84.6375 138.764L95.7908 158.09L106.944 138.764H84.6375ZM422.922 138.764L434.075 158.09L445.229 138.764H422.922ZM816.575 137.071L828.724 158.09L840.873 137.071L828.724 116.052L816.575 137.071ZM1381.41 135.377H1405.71L1418.86 112.665L1406.71 91.6461L1381.41 135.377ZM1099.49 135.377H1121.8L1110.64 116.052L1099.49 135.377ZM1043.13 135.377H1067.43L1080.57 112.665L1068.42 91.6461L1043.13 135.377ZM761.207 135.377H783.513L772.36 116.052L761.207 135.377ZM704.842 135.377H729.141L742.286 112.665L730.137 91.6461L704.842 135.377ZM422.922 135.377H445.229L434.075 116.052L422.922 135.377ZM366.558 135.377H390.856L404.001 112.665L391.852 91.6461L366.558 135.377ZM84.6375 135.377H106.944L95.7908 116.052L84.6375 135.377ZM28.2733 135.377H52.5717L65.7167 112.665L53.5675 91.6461L28.2733 135.377ZM1268.68 135.377H1290.99L1279.84 116.052L1268.68 135.377ZM1240.5 135.377H1262.81L1251.65 116.052L1240.5 135.377ZM930.399 135.377H952.705L941.552 116.052L930.399 135.377ZM902.217 135.377H924.523L913.37 116.052L902.217 135.377ZM592.114 135.377H614.421L603.268 116.052L592.114 135.377ZM563.932 135.377H586.239L575.085 116.052L563.932 135.377ZM253.83 135.377H276.136L264.983 116.052L253.83 135.377ZM225.648 135.377H247.954L236.801 116.052L225.648 135.377ZM352.417 114.358L363.57 133.684L374.724 114.358H352.417ZM14.1325 114.358L25.2858 133.684L36.4392 114.358H14.1325ZM1028.99 114.358L1040.14 133.684L1051.29 114.358H1028.99ZM1367.27 114.358L1378.42 133.684L1389.58 114.358H1367.27ZM690.702 114.358L701.855 133.684L713.008 114.358H690.702ZM1339.09 114.358L1350.24 133.684L1361.4 114.358H1339.09ZM1000.8 114.358L1011.96 133.684L1023.11 114.358H1000.8ZM1084.45 112.665L1096.6 133.684L1108.75 112.665L1096.6 91.6461L1084.45 112.665ZM746.17 112.665L758.319 133.684L770.468 112.665L758.319 91.6461L746.17 112.665ZM69.6004 112.665L81.7496 133.684L93.8988 112.665L81.7496 91.6461L69.6004 112.665ZM407.885 112.665L420.034 133.684L432.183 112.665L420.034 91.6461L407.885 112.665ZM662.52 114.358L673.673 133.684L684.826 114.358H662.52ZM324.235 114.358L335.388 133.684L346.542 114.358H324.235ZM1212.22 89.9527L1237.51 133.684L1249.66 112.665L1236.52 89.9527H1212.22ZM535.65 89.9527L560.945 133.684L573.094 112.665L559.949 89.9527H535.65ZM1112.64 112.665L1124.79 133.684L1136.93 112.665L1124.79 91.6461L1112.64 112.665ZM197.366 89.9527L222.66 133.684L234.809 112.665L221.664 89.9527H197.366ZM774.352 112.665L786.501 133.684L798.65 112.665L786.501 91.6461L774.352 112.665ZM436.067 112.665L448.216 133.684L460.365 112.665L448.216 91.6461L436.067 112.665ZM97.7825 112.665L109.932 133.684L122.081 112.665L109.932 91.6461L97.7825 112.665ZM1170 114.358L1181.15 133.684L1192.3 114.358H1170ZM831.712 114.358L842.865 133.684L854.018 114.358H831.712ZM803.53 114.358L814.683 133.684L825.836 114.358H803.53ZM873.935 89.9527L899.229 133.684L911.378 112.665L898.233 89.9527H873.935ZM155.143 114.358L166.296 133.684L177.449 114.358H155.143ZM1141.81 114.358L1152.97 133.684L1164.12 114.358H1141.81ZM493.427 114.358L504.58 133.684L515.734 114.358H493.427ZM915.262 112.665L927.411 133.684L939.56 112.665L927.411 91.6461L915.262 112.665ZM1281.73 112.665L1293.88 133.684L1306.03 112.665L1293.88 91.6461L1281.73 112.665ZM1253.55 112.665L1265.7 133.684L1277.84 112.665L1265.7 91.6461L1253.55 112.665ZM238.693 112.665L250.842 133.684L262.991 112.665L250.842 91.6461L238.693 112.665ZM605.16 112.665L617.309 133.684L629.458 112.665L617.309 91.6461L605.16 112.665ZM126.96 114.358L138.114 133.684L149.267 114.358H126.96ZM465.245 114.358L476.398 133.684L487.552 114.358H465.245ZM576.978 112.665L589.127 133.684L601.276 112.665L589.127 91.6461L576.978 112.665ZM266.875 112.665L279.024 133.684L291.173 112.665L279.024 91.6461L266.875 112.665ZM943.444 112.665L955.593 133.684L967.742 112.665L955.593 91.6461L943.444 112.665ZM1365.38 110.972H1389.68L1363.49 65.5469H1339.19L1365.38 110.972ZM1339.09 110.972H1361.4L1350.24 91.6461L1339.09 110.972ZM1310.91 110.972H1333.21L1322.06 91.6461L1310.91 110.972ZM1198.18 110.972H1220.48L1209.33 91.6461L1198.18 110.972ZM1170 110.972H1192.3L1181.15 91.6461L1170 110.972ZM1141.81 110.972H1166.11L1179.26 88.2592L1167.11 67.2404L1141.81 110.972ZM1027.09 110.972H1051.39L1025.2 65.5469H1000.8L1027.09 110.972ZM1000.8 110.972H1023.11L1011.96 91.6461L1000.8 110.972ZM972.622 110.972H994.929L983.775 91.6461L972.622 110.972ZM859.894 110.972H882.2L871.047 91.6461L859.894 110.972ZM831.712 110.972H854.018L842.865 91.6461L831.712 110.972ZM803.53 110.972H827.828L840.973 88.2592L828.824 67.2404L803.53 110.972ZM688.81 110.972H713.108L686.917 65.5469H662.619L688.81 110.972ZM662.52 110.972H684.826L673.673 91.6461L662.52 110.972ZM634.338 110.972H656.644L645.491 91.6461L634.338 110.972ZM521.609 110.972H543.916L532.763 91.6461L521.609 110.972ZM493.427 110.972H515.734L504.58 91.6461L493.427 110.972ZM465.245 110.972H489.543L502.688 88.2592L490.539 67.2404L465.245 110.972ZM350.525 110.972H374.823L348.533 65.5469H324.235L350.525 110.972ZM324.235 110.972H346.542L335.388 91.6461L324.235 110.972ZM296.053 110.972H318.36L307.206 91.6461L296.053 110.972ZM183.325 110.972H205.631L194.478 91.6461L183.325 110.972ZM155.143 110.972H177.449L166.296 91.6461L155.143 110.972ZM126.96 110.972H151.259L164.304 88.2592L152.155 67.2404L126.96 110.972ZM1324.05 88.2592L1336.2 109.278L1348.35 88.2592L1336.2 67.2404L1324.05 88.2592ZM1071.31 89.9527L1082.46 109.278L1093.62 89.9527H1071.31ZM1409.59 89.9527L1420.75 109.278L1431.9 89.9527H1409.59ZM56.4554 89.9527L67.6087 109.278L78.7621 89.9527H56.4554ZM647.483 88.2592L659.632 109.278L671.781 88.2592L659.632 67.2404L647.483 88.2592ZM309.198 88.2592L321.347 109.278L333.496 88.2592L321.347 67.2404L309.198 88.2592ZM733.025 89.9527L744.178 109.278L755.331 89.9527H733.025ZM394.74 89.9527L405.893 109.278L417.047 89.9527H394.74ZM985.767 88.2592L997.916 109.278L1010.07 88.2592L997.916 67.2404L985.767 88.2592ZM1126.68 88.2592L1138.83 109.278L1165.02 63.8534L1152.97 42.8346L1126.68 88.2592ZM1380.42 88.2592L1392.57 109.278L1417.86 65.5469H1393.56L1380.42 88.2592ZM703.847 88.2592L715.996 109.278L728.643 87.3627L741.29 65.5469H716.992L703.847 88.2592ZM365.562 88.2592L377.711 109.278L390.358 87.3627L403.005 65.5469H378.707L365.562 88.2592ZM1042.13 88.2592L1054.28 109.278L1079.57 65.5469H1055.28L1042.13 88.2592ZM27.2775 88.2592L39.4267 109.278L64.7208 65.5469H40.4225L27.2775 88.2592ZM1099.49 89.9527L1110.64 109.278L1121.8 89.9527H1099.49ZM788.393 88.2592L800.542 109.278L826.733 63.8534L814.683 42.8346L788.393 88.2592ZM84.6375 89.9527L95.7908 109.278L106.944 89.9527H84.6375ZM450.108 88.2592L462.258 109.278L488.448 63.8534L476.398 42.8346L450.108 88.2592ZM422.922 89.9527L434.075 109.278L445.229 89.9527H422.922ZM761.207 89.9527L772.36 109.278L783.513 89.9527H761.207ZM111.824 88.2592L123.973 109.278L150.163 63.8534L138.114 42.8346L111.824 88.2592ZM1281.73 63.8534L1307.92 109.278L1320.07 88.2592L1293.88 42.8346L1281.73 63.8534ZM943.444 63.8534L969.635 109.278L981.883 88.2592L955.593 42.8346L943.444 63.8534ZM930.399 89.9527L941.552 109.278L952.705 89.9527H930.399ZM266.875 63.8534L293.065 109.278L305.215 88.2592L279.024 42.8346L266.875 63.8534ZM1239.51 88.2592L1251.65 109.278L1276.95 65.5469H1252.65L1239.51 88.2592ZM1183.14 88.2592L1195.29 109.278L1220.58 65.5469H1196.29L1183.14 88.2592ZM506.572 88.2592L518.721 109.278L544.015 65.5469H519.717L506.572 88.2592ZM1268.68 89.9527L1279.84 109.278L1290.99 89.9527H1268.68ZM605.16 63.8534L631.35 109.278L643.499 88.2592L617.309 42.8346L605.16 63.8534ZM224.652 88.2592L236.801 109.278L262.095 65.5469H237.797L224.652 88.2592ZM592.114 89.9527L603.268 109.278L614.421 89.9527H592.114ZM901.221 88.2592L913.37 109.278L938.664 65.5469H914.366L901.221 88.2592ZM562.936 88.2592L575.085 109.278L600.38 65.5469H576.081L562.936 88.2592ZM168.288 88.2592L180.437 109.278L205.731 65.5469H181.432L168.288 88.2592ZM253.83 89.9527L264.983 109.278L276.136 89.9527H253.83ZM844.857 88.2592L857.006 109.278L882.3 65.5469H858.002L844.857 88.2592ZM1071.31 86.5658H1121.8L1109.65 65.5469H1083.46L1071.31 86.5658ZM733.025 86.5658H783.513L771.364 65.5469H745.174L733.025 86.5658ZM394.74 86.5658H445.229L433.08 65.5469H406.889L394.74 86.5658ZM56.4554 86.5658H106.944L94.795 65.5469H68.6046L56.4554 86.5658ZM1268.68 86.5658H1290.99L1279.84 67.2404L1268.68 86.5658ZM1212.22 86.5658H1236.52L1248.67 65.5469H1224.37L1212.22 86.5658ZM930.399 86.5658H952.705L941.552 67.2404L930.399 86.5658ZM873.935 86.5658H898.233L910.383 65.5469H886.084L873.935 86.5658ZM592.114 86.5658H614.421L603.268 67.2404L592.114 86.5658ZM535.65 86.5658H559.949L572.098 65.5469H547.8L535.65 86.5658ZM253.83 86.5658H276.136L264.983 67.2404L253.83 86.5658ZM197.366 86.5658H221.664L233.813 65.5469H209.515L197.366 86.5658ZM1309.91 63.8534L1322.06 84.8723L1348.25 39.4477L1336.1 18.4288L1309.91 63.8534ZM971.626 63.8534L983.775 84.8723L1009.97 39.4477L997.817 18.4288L971.626 63.8534ZM1112.64 63.8534L1124.79 84.8723L1150.08 41.1411H1125.78L1112.64 63.8534ZM1367.27 65.5469L1378.42 84.8723L1389.58 65.5469H1367.27ZM633.342 63.8534L645.491 84.8723L671.681 39.4477L659.532 18.4288L633.342 63.8534ZM295.057 63.8534L307.206 84.8723L333.397 39.4477L321.247 18.4288L295.057 63.8534ZM774.352 63.8534L786.501 84.8723L811.795 41.1411H787.497L774.352 63.8534ZM97.7825 63.8534L109.932 84.8723L135.226 41.1411H110.928L97.7825 63.8534ZM155.143 65.5469L166.296 84.8723L177.449 65.5469H155.143ZM436.067 63.8534L448.216 84.8723L473.51 41.1411H449.212L436.067 63.8534ZM1170 65.5469L1181.15 84.8723L1192.3 65.5469H1170ZM493.427 65.5469L504.58 84.8723L515.734 65.5469H493.427ZM352.417 65.5469L363.57 84.8723L374.724 65.5469H352.417ZM690.702 65.5469L701.855 84.8723L713.008 65.5469H690.702ZM1028.99 65.5469L1040.14 84.8723L1051.29 65.5469H1028.99ZM831.712 65.5469L842.865 84.8723L854.018 65.5469H831.712ZM14.1325 65.5469L25.2858 84.8723L36.4392 65.5469H14.1325ZM1395.45 62.16H1419.75L1431.9 41.1411H1407.6L1395.45 62.16ZM1367.27 62.16H1389.58L1378.42 42.8346L1367.27 62.16ZM1339.09 62.16H1361.4L1350.24 42.8346L1339.09 62.16ZM1085.45 62.16H1107.76L1096.6 42.8346L1085.45 62.16ZM1057.17 62.16H1081.47L1093.62 41.1411H1069.32L1057.17 62.16ZM1028.99 62.16H1051.29L1040.14 42.8346L1028.99 62.16ZM1000.8 62.16H1023.11L1011.96 42.8346L1000.8 62.16ZM747.165 62.16H769.472L758.319 42.8346L747.165 62.16ZM718.884 62.16H743.182L755.331 41.1411H731.033L718.884 62.16ZM690.702 62.16H713.008L701.855 42.8346L690.702 62.16ZM662.52 62.16H684.826L673.673 42.8346L662.52 62.16ZM408.881 62.16H431.188L420.034 42.8346L408.881 62.16ZM380.599 62.16H404.898L417.047 41.1411H392.748L380.599 62.16ZM352.417 62.16H374.724L363.57 42.8346L352.417 62.16ZM324.235 62.16H346.542L335.388 42.8346L324.235 62.16ZM70.5963 62.16H92.9029L81.7496 42.8346L70.5963 62.16ZM42.3146 62.16H66.6129L78.7621 41.1411H54.4638L42.3146 62.16ZM14.1325 62.16H36.4392L25.3854 42.8346L14.1325 62.16ZM1254.54 62.16H1276.85L1265.7 42.8346L1254.54 62.16ZM1226.36 62.16H1248.67L1237.51 42.8346L1226.36 62.16ZM1198.18 62.16H1222.48L1234.63 41.1411H1210.33L1198.18 62.16ZM1170 62.16H1194.29L1206.44 41.1411H1182.15L1170 62.16ZM916.258 62.16H938.565L927.411 42.8346L916.258 62.16ZM888.076 62.16H910.383L899.229 42.8346L888.076 62.16ZM859.894 62.16H884.192L896.341 41.1411H872.043L859.894 62.16ZM831.712 62.16H856.01L868.159 41.1411H843.861L831.712 62.16ZM577.973 62.16H600.28L589.127 42.8346L577.973 62.16ZM549.791 62.16H572.098L560.945 42.8346L549.791 62.16ZM521.609 62.16H545.908L558.057 41.1411H533.758L521.609 62.16ZM493.427 62.16H517.725L529.875 41.1411H505.576L493.427 62.16ZM239.689 62.16H261.995L250.842 42.8346L239.689 62.16ZM211.507 62.16H233.813L222.66 42.8346L211.507 62.16ZM183.325 62.16H207.623L219.772 41.1411H195.474L183.325 62.16ZM155.143 62.16H179.441L191.59 41.1411H167.292L155.143 62.16ZM620.296 41.1411L631.45 60.4665L642.603 41.1411H620.296ZM282.012 41.1411L293.165 60.4665L304.318 41.1411H282.012ZM1296.87 41.1411L1308.02 60.4665L1319.17 41.1411H1296.87ZM958.581 41.1411L969.734 60.4665L980.888 41.1411H958.581ZM1098.5 39.4477L1110.64 60.4665L1122.79 39.4477L1110.64 18.4288L1098.5 39.4477ZM421.926 39.4477L434.075 60.4665L446.225 39.4477L434.075 18.4288L421.926 39.4477ZM83.6417 39.4477L95.7908 60.4665L107.94 39.4477L95.7908 18.3292L83.6417 39.4477ZM760.211 39.4477L772.36 60.4665L784.509 39.4477L772.36 18.4288L760.211 39.4477ZM817.571 41.1411L828.724 60.4665L839.878 41.1411H817.571ZM1268.68 41.1411L1279.84 60.4665L1290.99 41.1411H1268.68ZM930.399 41.1411L941.552 60.4665L952.705 41.1411H930.399ZM1155.86 41.1411L1167.01 60.4665L1178.16 41.1411H1155.86ZM479.286 41.1411L490.44 60.4665L501.593 41.1411H479.286ZM141.002 41.1411L152.155 60.4665L163.308 41.1411H141.002ZM1381.41 41.1411L1392.57 60.4665L1403.72 41.1411H1381.41ZM253.83 41.1411L264.983 60.4665L276.136 41.1411H253.83ZM1043.13 41.1411L1054.28 60.4665L1065.43 41.1411H1043.13ZM1013.95 39.4477L1026.1 60.4665L1038.25 39.4477L1026.1 18.4288L1013.95 39.4477ZM-0.904583 39.4477L11.2446 60.4665L23.3937 39.4477L11.2446 18.3292L-0.904583 39.4477ZM675.665 39.4477L687.814 60.4665L699.963 39.4477L687.814 18.4288L675.665 39.4477ZM704.842 41.1411L715.996 60.4665L727.149 41.1411H704.842ZM592.114 41.1411L603.268 60.4665L614.421 41.1411H592.114ZM28.2733 41.1411L39.4267 60.4665L50.58 41.1411H28.2733ZM1352.23 39.4477L1364.38 60.4665L1376.53 39.4477L1364.38 18.4288L1352.23 39.4477ZM366.558 41.1411L377.711 60.4665L388.865 41.1411H366.558ZM337.38 39.4477L349.529 60.4665L361.678 39.4477L349.529 18.3292L337.38 39.4477ZM1294.87 37.7542H1319.17L1307.02 16.7354H1282.72L1294.87 37.7542ZM1266.69 37.7542H1290.99L1278.84 16.7354H1254.54L1266.69 37.7542ZM956.589 37.7542H980.888L968.738 16.7354H944.44L956.589 37.7542ZM928.407 37.7542H952.705L940.556 16.7354H916.258L928.407 37.7542ZM618.305 37.7542H642.603L630.454 16.7354H606.155L618.305 37.7542ZM590.122 37.7542H614.421L602.272 16.7354H577.973L590.122 37.7542ZM280.02 37.7542H304.318L292.169 16.7354H267.871L280.02 37.7542ZM251.838 37.7542H276.136L263.987 16.7354H239.689L251.838 37.7542ZM1409.59 37.7542H1431.9L1420.75 18.4288L1409.59 37.7542ZM1153.96 37.7542H1178.26L1166.11 16.6358H1141.81L1153.96 37.7542ZM1127.67 37.7542H1149.98L1138.83 18.4288L1127.67 37.7542ZM1071.31 37.7542H1093.62L1082.46 18.3292L1071.31 37.7542ZM815.679 37.7542H839.977L827.828 16.7354H803.53L815.679 37.7542ZM789.389 37.7542H811.695L800.542 18.4288L789.389 37.7542ZM733.025 37.7542H755.331L744.178 18.4288L733.025 37.7542ZM477.394 37.7542H501.693L489.543 16.7354H465.245L477.394 37.7542ZM451.104 37.7542H473.411L462.258 18.4288L451.104 37.7542ZM394.74 37.7542H417.047L405.893 18.4288L394.74 37.7542ZM56.4554 37.7542H78.7621L67.6087 18.3292L56.4554 37.7542ZM139.11 37.7542H163.308L151.159 16.7354H126.861L139.11 37.7542ZM112.82 37.7542H135.126L123.973 18.4288L112.82 37.7542ZM1212.22 37.7542H1234.53L1223.37 18.4288L1212.22 37.7542ZM1184.04 37.7542H1206.34L1195.19 18.4288L1184.04 37.7542ZM873.935 37.7542H896.242L885.088 18.4288L873.935 37.7542ZM845.753 37.7542H868.06L856.906 18.4288L845.753 37.7542ZM535.65 37.7542H557.957L546.804 18.4288L535.65 37.7542ZM507.468 37.7542H529.775L518.622 18.4288L507.468 37.7542ZM197.366 37.7542H219.673L208.519 18.4288L197.366 37.7542ZM169.184 37.7542H191.49L180.337 18.4288L169.184 37.7542ZM972.622 16.6358L983.775 35.9611L994.929 16.6358H972.622ZM98.7783 16.6358L109.932 35.9611L121.085 16.6358H98.7783ZM1000.8 16.6358L1011.96 35.9611L1023.11 16.6358H1000.8ZM1113.63 16.6358L1124.79 35.9611L1135.94 16.6358H1113.63ZM324.235 16.6358L335.388 35.9611L346.542 16.6358H324.235ZM296.053 16.6358L307.206 35.9611L318.36 16.6358H296.053ZM1339.09 16.6358L1350.24 35.9611L1361.4 16.6358H1339.09ZM1310.91 16.6358L1322.06 35.9611L1333.21 16.6358H1310.91ZM634.338 16.6358L645.491 35.9611L656.644 16.6358H634.338ZM662.52 16.6358L673.673 35.9611L684.826 16.6358H662.52ZM775.347 16.6358L786.501 35.9611L797.654 16.6358H775.347ZM437.063 16.6358L448.216 35.9611L459.37 16.6358H437.063ZM1085.45 16.6358L1096.6 35.9611L1107.76 16.6358H1085.45ZM155.143 16.6358L166.296 36.0608L177.449 16.7354H155.143V16.6358ZM493.427 16.6358L504.58 35.9611L515.734 16.6358H493.427ZM1170 16.6358L1181.15 35.9611L1192.3 16.6358H1170ZM831.712 16.6358L842.865 35.9611L854.018 16.6358H831.712ZM408.881 16.6358L420.034 35.9611L431.188 16.6358H408.881ZM70.5963 16.6358L81.7496 35.9611L92.9029 16.6358H70.5963ZM747.165 16.6358L758.319 35.9611L769.472 16.6358H747.165Z" fill="#133a6a"/>
</svg>